<?xml version="1.0" encoding="UTF-8" standalone="no"?>
<!-- Created with Inkscape (http://www.inkscape.org/) -->
<svg id="svg3509" xmlns:rdf="http://www.w3.org/1999/02/22-rdf-syntax-ns#" xmlns="http://www.w3.org/2000/svg" height="200" viewBox="0 0 200 200" width="200" version="1.1" xmlns:cc="http://creativecommons.org/ns#" xmlns:dc="http://purl.org/dc/elements/1.1/">
 <metadata id="metadata3515">
  <rdf:RDF>
   <cc:Work rdf:about="">
    <dc:format>image/svg+xml</dc:format>
    <dc:type rdf:resource="http://purl.org/dc/dcmitype/StillImage"/>
    <dc:title/>
   </cc:Work>
  </rdf:RDF>
 </metadata>
 <path id="path4937" fill="#a9d303" d="m85.95 198.23c-82.42-11.59-114.59-117.49-52.446-172.63 12.907-11.449 13-11.45 13.134-0.082 0.31002 26.358 12.295 37.553 60.999 56.976 11.308 4.5094 20.559 8.7535 20.559 9.4313 0 0.67785-3.099 11.187-6.8866 23.353-13.713 44.047-14.469 59.144-3.7676 75.173 2.1752 3.258 3.7687 6.1114 3.5411 6.3408-2.046 2.0623-24.247 2.9746-35.132 1.4437zm42.141-9.2356c-3.6123-3.7518-4.1954-4.8922-2.8804-5.634 3.8388-2.1653 50.552-21.497 50.958-21.089 1.6864 1.6998-20.399 20.304-29.949 25.229-13.083 6.7465-13.072 6.7456-18.129 1.4938zm-8.2041-15.795c-1.9646-9.9008-3.89-8.4255 29.431-22.55 16.574-7.0258 30.708-13.001 31.409-13.278 1.487-0.58848 3.7955 5.4117 3.7955 9.8653 0 2.9562-1.2417 3.6034-31.263 16.295-35.972 15.207-32.474 14.194-33.372 9.6682zm0.74823-20.506c0.33393-1.4461 1.2297-5.5288 1.9907-9.0726 1.3836-6.4433 1.3836-6.4433 24.927-16.219 25.83-10.725 24.446-10.564 28.657-3.3204 3.7446 6.4404 5.464 5.1735-23.795 17.532-13.631 5.7576-26.495 11.197-28.586 12.089-3.7294 1.5895-3.7903 1.5702-3.1948-1.009zm69.546-20.912c-5.37-17.13-21.27-33.191-42.26-42.69-7.7568-3.5106-7.5796-2.8078-4.5226-17.937 4.5843-22.688-3.181-49.672-18.442-64.084-5.0178-4.7385-4.4445-5.2515 3.2453-2.9048 50.029 15.268 80.927 69.792 67.739 119.54-3.3084 12.479-4.0637 13.538-5.7706 8.085zm-62.699-5.5778c0.35975-0.94496 2.7364-8.3753 5.2814-16.512 5.2188-16.685 4.1698-15.962 15.146-10.432 10.045 5.061 18.95 11.902 16.957 13.027-2.0715 1.1685-36.8 15.635-37.534 15.635-0.27778 0-0.21071-0.77316 0.14905-1.7181zm-7.4501-48.638c-4.7998-1.9687-8.7235-3.8349-8.7193-4.1472 0.006-0.44986 14.109-6.7298 22.404-9.9761 1.7847-0.69849 1.0962 7.9265-1.1515 14.426-1.4556 4.2086-1.5399 4.2066-12.533-0.30235zm-28.377-11.865c-8.933-4.26-8.933-4.26 16.107-14.868 13.771-5.8347 25.27-10.375 25.553-10.089 0.66964 0.67496 3.0273 13.506 2.5562 13.912-0.38247 0.32922-32.252 14.241-34.155 14.909-0.6196 0.21764-5.1462-1.5212-10.059-3.8641zm-24.386-14.606c-6.945-6.548-9.381-4.706 25.967-19.637 33.536-14.167 30.796-13.924 35.636-3.155 2.4095 5.361 5.1025 3.6135-25.866 16.784-30.965 13.172-28.562 12.768-35.733 6.008zm-10.47-15.422c-3.121-11.74-2.674-12.177 24.052-23.502 24.761-10.492 24.761-10.492 31.031-5.0967 3.4458 2.9672 5.8634 5.7506 5.3725 6.1853-1.0111 0.89533-57.958 24.971-59.06 24.969-0.39243-0.000765-1.0192-1.1511-1.3928-2.5562zm-0.507-23.739c0.419-2.8492 8.803-6.4652 22.107-9.5346 12.316-2.8414 10.906-1.5164-5.931 5.5745-17.488 7.3651-16.646 7.1591-16.176 3.9601z"/>
</svg>
