<?xml version="1.0" encoding="UTF-8" standalone="no"?>
<!-- Created with Inkscape (http://www.inkscape.org/) -->
<svg id="svg3509" xmlns:rdf="http://www.w3.org/1999/02/22-rdf-syntax-ns#" xmlns="http://www.w3.org/2000/svg" height="200" viewBox="0 0 200 200" width="200" version="1.1" xmlns:cc="http://creativecommons.org/ns#" xmlns:dc="http://purl.org/dc/elements/1.1/">
 <metadata id="metadata3515">
  <rdf:RDF>
   <cc:Work rdf:about="">
    <dc:format>image/svg+xml</dc:format>
    <dc:type rdf:resource="http://purl.org/dc/dcmitype/StillImage"/>
    <dc:title/>
   </cc:Work>
  </rdf:RDF>
 </metadata>
 <path id="path3877" fill="#432077" d="m89.017 198.38c-109.13-10.41-120.23-165.38-13.884-193.94 94.857-25.477 165.75 96.83 95.447 164.66-6.3983 6.1732-4.7857 9.5156-17.083-35.408-29.04-106.07-28.48-104.28-32.72-104.28-2.2843 0-36.258 8.9525-53.875 14.197-11.985 3.5678-12.022 4.3315-0.94908 19.866 8.4095 11.798 8.4095 11.798 24.956 71.668 18.263 66.079 17.673 63.372 13.804 63.372-1.5087 0-3.423 0.18299-4.2539 0.40666-0.83091 0.22365-5.9828-0.0197-11.449-0.54079zm27.783-2.41c-0.63-0.77-7.67-25.13-15.65-54.12-14.501-52.723-14.501-52.723-11.281-56.064 4.9054-5.0884 9.6338-6.2137 19.069-4.538 7.0301 1.2486 8.588 1.1774 13.961-0.63773 7.5917-2.5645 6.3819-4.4966 13.582 21.692 7.4629 27.144 7.4964 24.741-0.37586 26.96-10.83 3.0521-14.548 6.7379-9.5047 9.4204 1.5299 0.81369 4.3017 0.50816 9.9258-1.0941 7.3859-2.1042 7.8807-2.1184 9.2539-0.26561 2.6733 3.6069 1.0611 5.2266-7.87 7.9061-9.0866 2.7262-10.862 4.3691-8.3753 7.7491 1.4444 1.9631 1.8118 1.9627 10.237-0.0113 4.849-1.1361 9.1676-1.6173 9.7025-1.0811 2.4846 2.4911 8.2581 27.364 6.7664 29.15-5.4637 6.5426-36.654 18.356-39.439 14.938zm-33.419-118.42c-0.996-3.481-4.377-9.669-8.099-14.824-7.069-9.791-7.247-10.264-4.403-11.664 3.849-1.895 46.771-13.027 47.491-12.316 0.95381 0.94792 9.4298 31.221 9.4777 33.851 0.0746 4.0971-9.3526 6.8838-18.313 5.4133-8.9142-1.463-16.537-0.16026-19.758 3.3766-3.1109 3.4163-4.567 2.5423-6.3931-3.8372z"/>
</svg>
