<?xml version="1.0" encoding="UTF-8" standalone="no"?>
<!-- Created with Inkscape (http://www.inkscape.org/) -->

<svg
   xmlns:dc="http://purl.org/dc/elements/1.1/"
   xmlns:cc="http://creativecommons.org/ns#"
   xmlns:rdf="http://www.w3.org/1999/02/22-rdf-syntax-ns#"
   xmlns:svg="http://www.w3.org/2000/svg"
   xmlns="http://www.w3.org/2000/svg"
   xmlns:sodipodi="http://sodipodi.sourceforge.net/DTD/sodipodi-0.dtd"
   xmlns:inkscape="http://www.inkscape.org/namespaces/inkscape"
   id="svg3509"
   version="1.1"
   inkscape:version="0.91 r13725"
   width="200"
   height="200"
   viewBox="0 0 200 200"
   sodipodi:docname="geography.svg">
  <metadata
     id="metadata3515">
    <rdf:RDF>
      <cc:Work
         rdf:about="">
        <dc:format>image/svg+xml</dc:format>
        <dc:type
           rdf:resource="http://purl.org/dc/dcmitype/StillImage" />
        <dc:title></dc:title>
      </cc:Work>
    </rdf:RDF>
  </metadata>
  <defs
     id="defs3513" />
  <sodipodi:namedview
     pagecolor="#ffffff"
     bordercolor="#666666"
     borderopacity="1"
     objecttolerance="10"
     gridtolerance="10"
     guidetolerance="10"
     inkscape:pageopacity="0"
     inkscape:pageshadow="2"
     inkscape:window-width="1280"
     inkscape:window-height="657"
     id="namedview3511"
     showgrid="false"
     fit-margin-left="1"
     fit-margin-top="1"
     fit-margin-right="1"
     fit-margin-bottom="1"
     inkscape:zoom="1"
     inkscape:cx="314.72123"
     inkscape:cy="138.26856"
     inkscape:window-x="-8"
     inkscape:window-y="-8"
     inkscape:window-maximized="1"
     inkscape:current-layer="svg3509" />
  <path
     style="fill:#000000"
     d=""
     id="path3926"
     inkscape:connector-curvature="0" />
  <path
     style="fill:#000000"
     d=""
     id="path3924"
     inkscape:connector-curvature="0" />
  <path
     style="fill:#a98803"
     d="m 78.781044,197.21828 c -4.350241,-0.92207 -11.885017,-3.38815 -16.743954,-5.4802 -4.858926,-2.09205 -11.661698,-5.50141 -15.117247,-7.57637 -3.455561,-2.07497 -9.949601,-7.1877 -14.431197,-11.36165 C 28.00705,168.62612 21.643539,161.30036 18.347503,156.52059 15.051466,151.74081 10.702705,143.90325 8.6835828,139.10378 6.6644488,134.3043 4.0778408,126.33792 2.9355578,121.40071 1.4602271,115.02404 0.90350916,108.48684 1.0134629,98.830963 1.1246483,89.069497 1.8369015,82.683588 3.5403878,76.175941 c 1.304666,-4.984106 4.58546,-13.649653 7.2906552,-19.256772 2.705194,-5.607119 7.302383,-13.354741 10.215982,-17.21694 2.913588,-3.862197 7.943213,-9.408293 11.176945,-12.324657 3.233721,-2.916364 8.860549,-7.33306 12.504063,-9.814879 3.643513,-2.481818 9.833432,-5.970998 13.755384,-7.7537328 C 62.40538,8.0262252 69.339484,5.5123764 73.892548,4.222628 78.489635,2.9204103 87.542701,1.5748014 94.251045,1.1966267 101.75924,0.77336319 109.59514,1.0434582 114.95515,1.9102771 c 4.74315,0.7670606 12.0188,2.5524715 16.16812,3.9675803 4.14931,1.4151078 10.34079,3.9892938 13.75884,5.7204116 3.41805,1.73112 8.50274,4.706341 11.29933,6.611604 2.79658,1.905264 8.32069,6.55177 12.27579,10.325568 3.9551,3.7738 9.36179,9.919882 12.01486,13.657961 2.65306,3.738079 6.65096,10.455919 8.88424,14.928532 2.23328,4.472612 5.12126,11.863814 6.41775,16.424894 1.48799,5.234753 2.59594,13.316599 3.00453,21.916003 0.49642,10.448639 0.19602,15.855589 -1.28917,23.203599 -1.06504,5.26927 -3.41498,13.42407 -5.22211,18.12179 -1.80713,4.69774 -5.79547,12.35181 -8.86296,17.00907 -3.06751,4.65726 -8.11573,11.20103 -11.21829,14.54172 -3.10255,3.34068 -6.15759,5.7539 -6.78898,5.36271 -0.63138,-0.39119 -1.47585,-3.37935 -1.8766,-6.64034 -0.46323,-3.76946 -0.0825,-9.02358 1.04539,-14.42473 1.14214,-5.46959 4.00484,-12.86022 8.03704,-20.74921 3.44466,-6.73946 7.04772,-15.3242 8.00681,-19.07721 1.17685,-4.60516 1.48673,-8.72338 0.95313,-12.66695 -0.43486,-3.213824 -1.82044,-8.617371 -3.07904,-12.007882 -1.70405,-4.59039 -4.40656,-8.287993 -10.5832,-14.480052 -8.24641,-8.266975 -8.31138,-8.304597 -11.13693,-6.448611 -1.60666,1.05535 -2.84213,2.947145 -2.84213,4.351976 0,1.366805 -0.70333,3.449359 -1.56296,4.6279 -1.19989,1.64506 -1.26552,2.6323 -0.28248,4.250121 1.01801,1.675386 0.89687,2.393091 -0.59104,3.50154 -1.36188,1.014556 -1.57736,1.921161 -0.79131,3.329265 0.59412,1.064275 1.69054,1.946379 2.43649,1.960232 0.74595,0.01385 2.59608,0.980495 4.11141,2.148093 1.51531,1.167598 3.42855,1.863844 4.25163,1.547213 0.82307,-0.316633 2.22425,0.02979 3.11372,0.769826 0.96562,0.803391 1.54655,3.122147 1.44182,5.754962 -0.11841,2.976787 0.63257,5.505007 2.31138,7.781357 1.55776,2.11225 2.20537,4.13559 1.73352,5.4161 -0.41429,1.12429 -1.11454,2.29903 -1.55612,2.61053 -0.44158,0.31151 -1.60199,2.49039 -2.57868,4.84195 -0.97669,2.35157 -1.48542,5.03419 -1.13052,5.96138 0.35491,0.92719 0.002,2.46272 -0.78403,3.41232 -0.78613,0.94958 -2.24131,1.60827 -3.23373,1.46373 -0.99242,-0.14454 -3.83828,0.86144 -6.32413,2.23554 -2.48585,1.37408 -5.34932,3.08947 -6.36325,3.81197 -1.44066,1.02655 -2.76563,0.87498 -6.06295,-0.69361 -2.4874,-1.18329 -5.4898,-1.75253 -7.31423,-1.38673 -1.85599,0.37212 -4.07268,-0.0662 -5.53776,-1.0949 -1.34364,-0.94346 -2.12697,-2.22799 -1.74072,-2.85449 0.38623,-0.6265 -0.45659,-2.37571 -1.87297,-3.88712 -1.41636,-1.51141 -3.26017,-2.74802 -4.09736,-2.74802 -0.83719,0 -2.10763,-1.28818 -2.8232,-2.86261 -0.98659,-2.17072 -0.98074,-3.18372 0.0242,-4.19118 0.72894,-0.73072 1.32531,-3.01071 1.32531,-5.06665 0,-2.05595 -0.50847,-3.73808 -1.12994,-3.73808 -0.62146,0 -1.12993,-1.09542 -1.12993,-2.43426 0,-1.33885 1.81244,-4.19886 4.02762,-6.355597 2.2152,-2.15674 3.77491,-4.581594 3.46601,-5.38857 -0.30889,-0.806977 0.37121,-2.313543 1.51135,-3.347925 1.14013,-1.034382 2.75837,-1.733798 3.59608,-1.554259 0.83771,0.179539 3.93833,-0.362634 6.89028,-1.204827 2.95195,-0.842193 5.36718,-1.974753 5.36718,-2.516798 0,-0.542045 1.35592,-0.985538 3.01316,-0.985538 1.65723,0 2.65016,-0.363901 2.2065,-0.808669 -0.44367,-0.444768 -3.96058,-0.862206 -7.81537,-0.927639 -3.85479,-0.06543 -7.88585,0.413138 -8.95789,1.063492 -1.37707,0.835391 -2.32349,0.807229 -3.22441,-0.09594 -0.8584,-0.860541 -0.9171,-1.919932 -0.17959,-3.241078 0.76112,-1.363432 0.54378,-3.385399 -0.71183,-6.622489 -0.9941,-2.562899 -2.78653,-5.469306 -3.98316,-6.45868 -1.20157,-0.993456 -1.81239,-2.388168 -1.36426,-3.115066 0.44629,-0.723911 1.70667,-1.316202 2.80084,-1.316202 1.09419,0 3.09805,-1.278222 4.45305,-2.840494 1.355,-1.562271 2.46364,-3.133059 2.46364,-3.490638 0,-0.357577 -6.22876,-0.481136 -13.84168,-0.274572 -13.05103,0.354119 -14.28689,0.593734 -21.636015,4.194921 -4.286889,2.10064 -9.945276,5.975639 -12.574178,8.611106 -2.628913,2.635467 -6.490583,8.307963 -8.58149,12.605545 -3.169111,6.513701 -3.827975,9.191656 -3.95986,16.09506 -0.124903,6.537807 -0.632153,8.803357 -2.409401,10.761137 -1.238158,1.36392 -4.67921,6.17814 -7.646776,10.69827 -5.344457,8.14056 -5.375259,8.24091 -3.251121,10.59392 1.179457,1.30653 3.490057,3.07308 5.134674,3.92567 2.835115,1.46974 2.976209,1.94847 2.72011,9.22922 -0.171173,4.86609 0.316664,8.8578 1.331705,10.89687 1.050453,2.11019 1.346846,4.73067 0.861088,7.61305 -0.639,3.79162 -0.337692,4.76971 2.193911,7.12178 1.614064,1.49959 4.516387,3.04366 6.449634,3.43127 1.933236,0.38762 6.981878,0.70475 11.219194,0.70475 6.68041,0 7.93797,0.33456 9.46319,2.51755 0.96743,1.38464 1.77556,3.55103 1.79586,4.8142 0.0203,1.26315 1.02062,5.1002 2.222965,8.52677 1.20235,3.42657 2.20269,7.12217 2.22298,8.21245 0.032,1.71733 -1.05816,1.96996 -8.155125,1.88996 -4.505605,-0.0507 -11.751299,-0.84676 -16.101541,-1.76882 z m 74.804896,-70.9181 c 2.06742,-1.40178 4.83062,-4.75009 6.14042,-7.44069 1.73633,-3.56672 2.21336,-6.14854 1.76089,-9.53031 -0.34132,-2.55107 -1.59439,-5.9568 -2.7846,-7.56827 -1.19022,-1.61147 -3.89693,-4.121967 -6.01491,-5.578882 -3.2125,-2.20982 -4.9281,-2.573381 -10.34913,-2.193139 -5.2795,0.370315 -7.15991,1.079579 -10.02608,3.781694 -1.94029,1.82924 -4.22789,4.966157 -5.08354,6.970937 -0.85566,2.00479 -1.55574,5.02971 -1.55574,6.72206 0,1.69235 1.01574,5.14946 2.2572,7.68246 1.24147,2.53299 3.90377,5.75236 5.91624,7.15414 2.70323,1.88293 5.26831,2.54869 9.81966,2.54869 4.52173,0 7.1606,-0.67802 9.91959,-2.54869 z m -7.61792,-52.036958 c 1.26714,-1.363503 2.30389,-3.588583 2.30389,-4.944621 0,-1.356038 -1.05385,-3.808611 -2.34188,-5.450162 -1.53966,-1.962243 -3.43209,-2.98464 -5.52449,-2.98464 -1.75043,0 -4.28638,0.896013 -5.63544,1.99114 -1.54408,1.253443 -2.49146,3.35307 -2.55709,5.667163 -0.0591,2.082827 0.78078,4.656422 1.93781,5.93812 1.25661,1.391996 3.47896,2.262095 5.7777,2.262095 2.38783,0 4.56686,-0.894449 6.0395,-2.479095 z M 101.3797,101.69084 c -1.24293,-0.52003 -3.410525,-0.68215 -4.816885,-0.36026 -1.40636,0.32188 -3.33626,-0.0631 -4.288667,-0.85548 -0.952409,-0.792397 -1.457873,-2.155957 -1.123255,-3.030117 0.334619,-0.874173 -0.150721,-3.061014 -1.078509,-4.85965 -0.927799,-1.798635 -1.686911,-4.402334 -1.686911,-5.785996 0,-1.383662 -0.803224,-3.405525 -1.784955,-4.493027 -1.404325,-1.555639 -1.516324,-2.480473 -0.525215,-4.337012 0.692863,-1.297853 1.690515,-2.359732 2.216996,-2.359732 0.526481,0 3.099553,-1.990228 5.717916,-4.422728 2.61837,-2.4325 5.67881,-5.185738 6.800975,-6.118306 1.12217,-0.932569 3.02214,-2.007976 4.22214,-2.389794 1.41136,-0.449061 2.90916,0.111474 4.24144,1.587302 1.13278,1.254833 2.70449,2.281515 3.49268,2.281515 0.7882,0 2.98709,1.310878 4.88644,2.913062 1.89935,1.602182 3.94991,2.605416 4.5568,2.229406 0.60687,-0.37601 1.94861,0.609486 2.98162,2.189991 1.3709,2.09749 1.54995,3.270139 0.66291,4.341631 -0.66842,0.807393 -1.40244,5.105531 -1.63119,9.551418 -0.22874,4.445888 -1.08949,8.8971 -1.91278,9.89158 -0.8233,0.99449 -2.05617,1.61983 -2.73974,1.38966 -0.68355,-0.23017 -3.2767,0.50627 -5.76255,1.636527 -2.48586,1.13026 -5.79091,2.03037 -7.34457,2.00028 -1.55365,-0.0301 -3.84177,-0.48023 -5.08469,-1.00027 z m 12.86911,-8.591913 c 2.02237,-1.705959 3.72981,-4.459216 4.1466,-6.686379 0.46213,-2.469538 0.0648,-5.146215 -1.14263,-7.696994 -1.01815,-2.150926 -3.09715,-4.579262 -4.61999,-5.396301 -1.52286,-0.817038 -4.29863,-1.485525 -6.1684,-1.485525 -1.86975,0 -4.71192,0.704104 -6.3159,1.564674 -1.603995,0.860572 -3.635665,2.959167 -4.514845,4.663545 -0.87918,1.704379 -1.59851,4.704372 -1.59851,6.666652 0,2.547142 1.09903,4.669543 3.84177,7.419136 3.095895,3.103614 4.724385,3.851354 8.387805,3.851354 3.22911,0 5.54198,-0.840129 7.9841,-2.900162 z"
     id="path5157"
     inkscape:connector-curvature="0" />
</svg>
