<?xml version="1.0" encoding="UTF-8" standalone="no"?>
<!-- Created with Inkscape (http://www.inkscape.org/) -->
<svg id="svg3509" xmlns:rdf="http://www.w3.org/1999/02/22-rdf-syntax-ns#" xmlns="http://www.w3.org/2000/svg" height="200" viewBox="0 0 200 200" width="200" version="1.1" xmlns:cc="http://creativecommons.org/ns#" xmlns:dc="http://purl.org/dc/elements/1.1/">
 <metadata id="metadata3515">
  <rdf:RDF>
   <cc:Work rdf:about="">
    <dc:format>image/svg+xml</dc:format>
    <dc:type rdf:resource="http://purl.org/dc/dcmitype/StillImage"/>
    <dc:title/>
   </cc:Work>
  </rdf:RDF>
 </metadata>
 <path id="path5021" fill="#6d8f7a" d="m79.074 196.63c-75.956-17.47-104.02-109.97-50.173-165.38 56.559-58.204 154.7-27.861 168.68 52.149 11.8 67.561-52 128.51-118.51 113.23zm29.365-41.822c5.3867-9.3051 13.585-25.801 18.218-36.656 9.2053-21.568 10.05-23.009 11.736-20.02 0.61232 1.0856 1.7009 1.9738 2.4191 1.9738 0.71819 0 3.194 1.8445 5.5019 4.0988 2.6661 2.6043 4.8418 3.851 5.9669 3.4191 2.9265-1.1234 2.0253-3.5521-2.7392-7.3823-2.4805-1.9941-4.51-4.2815-4.51-5.0832 0-0.80171-1.2684-2.0358-2.8187-2.7424-4.7915-2.1839 0.27474-16.335 8.6009-24.025 4.0266-3.7186 4.5134-4.7145 4.2293-8.6508-0.20204-2.7994 0.40796-5.5615 1.6456-7.4509 3.2234-4.9212-0.34381-7.3432-4.3283-2.9388-1.1503 1.2716-3.4726 2.2558-5.3226 2.2558-4.4921 0-7.3008 1.7047-9.3546 5.6777-0.9539 1.8453-3.6228 4.5539-5.931 6.0191-8.2026 5.207-31.379 18.756-32.083 18.756-0.3935 0 4.8873-11.801 11.735-26.223 6.8478-14.423 12.707-27.108 13.021-28.189 0.49722-1.714-18.232-12.048-19.476-10.747-0.16079 0.1682-9.687 20.354-21.169 44.858-20.877 44.552-20.877 44.552-28.518 50.437-15.39 11.852-18.752 18.221-4.6093 8.7299 8.6736-5.8207 8.992-7.3871-4.0756 20.049-7.3776 15.49-7.3776 15.49 2.2864 20.02 5.3152 2.4917 9.9744 4.5282 10.354 4.5255 0.37924-0.002 8.101-15.864 17.159-35.247 16.12-34.494 29.644-50.238 43.334-50.45 1.3264-0.02053 10.664 9.1867 10.664 10.515 0 1.2155-25.917 61.374-31.395 72.874-9.2171 19.349-3.8427 14.575 9.459-8.4022zm19.73-73.677c-4.5368-3.7888-4.1904-4.5944 3.9879-9.2752 7.6855-4.3987 7.6339-4.461 4.0149 4.8455-3.4158 8.7839-3.0389 8.5752-8.0027 4.4298zm15.961-18.472c-1.9042-1.9048-1.6849-5.4139 0.33825-5.4139 1.9022 0 6.2012 3.9096 6.2012 5.6395 0 1.5801-4.9036 1.4109-6.5395-0.22558zm-36.84-27.25c-2.3113-1.6906-1.9523-5.0627 0.71797-6.7448 1.3618-0.85785 2.3698-0.77556 3.6644 0.29918 4.0962 3.4008-0.10249 9.5762-4.3823 6.4456z"/>
</svg>
