<?xml version="1.0" encoding="UTF-8" standalone="no"?>
<!-- Created with Inkscape (http://www.inkscape.org/) -->

<svg
   xmlns:dc="http://purl.org/dc/elements/1.1/"
   xmlns:cc="http://creativecommons.org/ns#"
   xmlns:rdf="http://www.w3.org/1999/02/22-rdf-syntax-ns#"
   xmlns:svg="http://www.w3.org/2000/svg"
   xmlns="http://www.w3.org/2000/svg"
   xmlns:sodipodi="http://sodipodi.sourceforge.net/DTD/sodipodi-0.dtd"
   xmlns:inkscape="http://www.inkscape.org/namespaces/inkscape"
   id="svg3509"
   version="1.1"
   inkscape:version="0.91 r13725"
   width="200"
   height="200"
   viewBox="0 0 200 200"
   sodipodi:docname="geography.svg">
  <metadata
     id="metadata3515">
    <rdf:RDF>
      <cc:Work
         rdf:about="">
        <dc:format>image/svg+xml</dc:format>
        <dc:type
           rdf:resource="http://purl.org/dc/dcmitype/StillImage" />
        <dc:title></dc:title>
      </cc:Work>
    </rdf:RDF>
  </metadata>
  <defs
     id="defs3513" />
  <sodipodi:namedview
     pagecolor="#ffffff"
     bordercolor="#666666"
     borderopacity="1"
     objecttolerance="10"
     gridtolerance="10"
     guidetolerance="10"
     inkscape:pageopacity="0"
     inkscape:pageshadow="2"
     inkscape:window-width="1280"
     inkscape:window-height="657"
     id="namedview3511"
     showgrid="false"
     fit-margin-left="1"
     fit-margin-top="1"
     fit-margin-right="1"
     fit-margin-bottom="1"
     inkscape:zoom="1"
     inkscape:cx="173.66082"
     inkscape:cy="124.72905"
     inkscape:window-x="-8"
     inkscape:window-y="-8"
     inkscape:window-maximized="1"
     inkscape:current-layer="svg3509" />
  <path
     style="fill:#000000"
     d=""
     id="path3926"
     inkscape:connector-curvature="0" />
  <path
     style="fill:#000000"
     d=""
     id="path3924"
     inkscape:connector-curvature="0" />
  <path
     style="fill:#241c1c"
     d="M 80.746076,197.38021 C 76.693273,196.54974 70.442152,194.84148 66.85469,193.58406 63.267229,192.32664 56.771057,189.4293 52.418756,187.14554 48.066454,184.86176 41.067179,180.10966 36.864803,176.58529 32.662438,173.06094 26.327143,166.73301 22.786377,162.52325 19.245622,158.3135 13.993859,150.17627 11.115791,144.44053 8.2377346,138.70481 4.7799856,129.93667 3.4319046,124.9558 1.4427546,117.6063 0.98454455,112.80641 1.0003926,99.485433 1.0176226,84.966598 1.3697816,81.921325 4.0496756,73.113314 5.7160526,67.636481 8.6653696,59.99537 10.603721,56.133068 12.542071,52.270766 16.305237,46.054256 18.966313,42.318602 21.627389,38.582948 27.07635,32.398623 31.0751,28.575659 35.073861,24.752693 41.981378,19.276208 46.425154,16.405692 50.86893,13.535175 58.240938,9.6994959 62.807386,7.8819619 67.373846,6.0644269 75.042145,3.772449 79.848043,2.788678 84.653952,1.8049059 93.730497,1.0000015 100.01815,1.0000015 c 6.28764,0 15.3642,0.8052723 20.1701,1.7894939 4.80589,0.9842203 12.05393,3.1051732 16.10673,4.7132263 4.0528,1.6080543 10.88156,5.0053933 15.17504,7.5496433 4.29346,2.54425 11.59353,8.143196 16.22236,12.442105 4.62884,4.298908 10.66726,10.966416 13.41872,14.816685 2.75147,3.850268 6.79396,10.775832 8.98335,15.39014 2.18937,4.614309 5.08878,12.464912 6.44312,17.445784 C 198.51591,82.422897 199,87.318758 199,100.05144 c 0,12.52377 -0.49351,17.65136 -2.35263,24.44407 -1.29394,4.72772 -3.88217,11.96435 -5.75163,16.0814 -1.86945,4.11705 -5.30821,10.35774 -7.64168,13.86819 -2.33348,3.51046 -6.79255,9.16859 -9.90904,12.57361 -3.1165,3.40503 -8.55482,8.41036 -12.08514,11.12298 -3.53034,2.71261 -9.7324,6.75078 -13.78236,8.97371 -4.04997,2.22294 -10.39096,5.09865 -14.09108,6.39048 -3.70013,1.29183 -10.47091,3.07963 -15.04619,3.97288 -4.57528,0.89327 -13.24771,1.57626 -19.272073,1.51774 -6.02436,-0.0585 -14.269299,-0.78583 -18.322101,-1.61629 z m 77.590934,-66.48723 c 3.15283,-3.27194 8.72156,-10.41627 12.37494,-15.8763 3.6534,-5.46001 8.3484,-13.31294 10.43336,-17.450943 2.08495,-4.137996 3.52946,-7.945918 3.21001,-8.462049 -0.31944,-0.516132 -2.59128,-0.938419 -5.04851,-0.938419 -2.45724,0 -4.4677,0.509407 -4.4677,1.132016 0,0.622609 0.51014,1.132016 1.13365,1.132016 0.62351,0 1.13365,1.584269 1.13365,3.520594 0,1.936326 -1.54524,6.393635 -3.43388,9.905145 -1.88864,3.5115 -4.37173,7.60712 -5.51798,9.10137 -2.08409,2.71683 -2.08409,2.71683 -2.83857,-5.09407 -0.41497,-4.29599 -1.05152,-10.485288 -1.41456,-13.753985 -0.66007,-5.943086 -0.66007,-5.943086 -5.06404,-5.943086 -2.42219,0 -4.40399,0.325896 -4.40399,0.724218 0,0.398312 0.72571,1.289775 1.61269,1.981029 1.04912,0.817599 2.27425,6.538776 3.50576,16.371314 1.89307,15.1145 1.89307,15.1145 -1.44697,19.24428 -1.83701,2.27138 -4.77472,4.63918 -6.52824,5.26179 -2.37035,0.84162 -3.30953,0.76902 -3.66115,-0.28301 -0.26012,-0.77826 -1.19564,-1.41502 -2.07894,-1.41502 -0.8833,0 -1.60601,0.72246 -1.60601,1.60544 0,0.883 -0.30964,2.41122 -0.68811,3.39605 -0.56172,1.46174 0.20729,1.79061 4.18703,1.79061 4.39877,0 5.43529,-0.5813 10.60756,-5.94899 z M 44.456547,118.17585 c 1.905338,-1.8228 4.002298,-5.11826 4.659895,-7.32324 0.837065,-2.80671 0.837949,-4.94255 0.0034,-7.1216 -0.655976,-1.71189 -2.755577,-4.061602 -4.665779,-5.22159 -3.473087,-2.10906 -3.473087,-2.10906 -0.0057,-3.543393 1.907288,-0.788891 4.732823,-2.935568 6.278964,-4.770408 1.927286,-2.287239 2.811091,-4.706528 2.811091,-7.695125 0,-3.360841 -0.684011,-4.896321 -2.987011,-6.705245 -2.098287,-1.648156 -4.638742,-2.346194 -8.538763,-2.346194 -3.053477,0 -7.250854,0.708894 -9.327499,1.575322 -2.56891,1.071809 -3.956396,2.519091 -4.340987,4.528065 -0.428543,2.23852 -0.102709,2.952744 1.347219,2.952744 1.051869,0 3.110625,-1.273518 4.575007,-2.830041 1.738647,-1.848039 3.892074,-2.830041 6.205957,-2.830041 1.948894,0 4.155614,0.611289 4.903823,1.35842 0.74821,0.747131 1.360381,3.00038 1.360381,5.007225 0,2.23502 -1.091989,4.944671 -2.818301,6.993338 -1.775128,2.106569 -4.712429,3.820793 -7.935557,4.631215 -2.814493,0.707669 -5.116235,1.916108 -5.114977,2.685403 0.0011,0.8026 1.782587,1.526128 4.179567,1.697674 2.297525,0.164425 5.154405,1.181941 6.348627,2.261131 1.714013,1.54892 2.053711,3.00415 1.612891,6.9094 -0.364469,3.22894 -1.535802,5.92316 -3.372487,7.7572 -1.942636,1.93984 -4.064139,2.81 -6.850937,2.81 -2.220289,0 -4.612327,-0.35512 -5.315644,-0.78917 -0.703317,-0.43405 -1.744802,-2.01321 -2.314416,-3.50925 -0.569615,-1.49604 -1.571059,-2.72008 -2.225437,-2.72008 -0.654377,0 -1.708106,1.36136 -2.341624,3.02526 -0.633529,1.66389 -0.90717,3.662 -0.60809,4.44025 0.299068,0.77826 1.722787,1.66506 3.163804,1.97069 1.441018,0.30561 5.904701,1.5888 10.092476,1.46796 6.720113,-0.19392 8.162616,-1.74088 11.220107,-4.66592 z m 20.418415,3.0443 c 0,-0.49809 -0.591574,-1.49634 -1.314594,-2.21831 -0.997034,-0.9956 -0.570691,-2.43521 1.764868,-5.95939 1.693709,-2.55567 3.656286,-4.45469 4.361292,-4.22003 0.704995,0.23466 2.248959,3.32391 3.431017,6.865 2.02588,6.06886 2.360658,6.43834 5.833587,6.43834 2.026401,0 4.002763,-0.31794 4.391923,-0.70654 0.389159,-0.3886 -0.280069,-1.53476 -1.487158,-2.54703 -1.2071,-1.01228 -3.442252,-4.69653 -4.967012,-8.18722 -2.772298,-6.34671 -2.772298,-6.34671 3.943405,-12.982746 3.693627,-3.649825 6.715692,-7.288748 6.715692,-8.086503 0,-0.964376 -1.70958,-1.450452 -5.10143,-1.450452 -2.805786,0 -5.101429,0.509407 -5.101429,1.132016 0,0.622609 0.510143,1.132016 1.133651,1.132016 0.623508,0 1.133651,0.725023 1.133651,1.611177 0,0.886142 -1.338831,3.199984 -2.975188,5.141879 -1.636357,1.941895 -3.294322,3.218473 -3.684366,2.836843 -0.390044,-0.381624 -1.51534,-3.077532 -2.500653,-5.990901 -1.655504,-4.895009 -2.107207,-5.323681 -5.951667,-5.648355 -2.396799,-0.202427 -4.160193,0.157452 -4.160193,0.849001 0,0.660203 0.541601,1.200356 1.203563,1.200356 0.661961,0 2.66561,3.183797 4.45255,7.075103 3.248987,7.075106 3.248987,7.075106 -4.037691,14.461616 -4.007671,4.06259 -7.286678,8.01049 -7.286678,8.77313 0,0.88871 1.831799,1.38661 5.10143,1.38661 2.805786,0 5.10143,-0.40753 5.10143,-0.90561 z m 81.622878,-12.67859 c 0,-2.14328 -0.75577,-2.26403 -14.17064,-2.26403 -13.41487,0 -14.17064,0.12075 -14.17064,2.26403 0,2.14328 0.75577,2.26403 14.17064,2.26403 13.41487,0 14.17064,-0.12075 14.17064,-2.26403 z m 3.40095,-14.716209 c 0,-2.143281 -0.75577,-2.264033 -14.17064,-2.264033 -13.41486,0 -14.17064,0.120752 -14.17064,2.264033 0,2.14328 0.75578,2.264033 14.17064,2.264033 13.41487,0 14.17064,-0.120753 14.17064,-2.264033 z m -37.41048,-2.737454 c 0,-0.882995 0.30964,-2.411217 0.68811,-3.396049 0.45155,-1.175022 0.0618,-1.790612 -1.13365,-1.790612 -1.00198,0 -1.82177,0.509407 -1.82177,1.132016 0,0.622609 -2.42317,1.114538 -5.38484,1.093166 -5.384843,-0.03883 -5.384843,-0.03883 2.71405,-7.64111 4.45439,-4.181244 8.41957,-8.565502 8.81151,-9.742797 0.39299,-1.180427 -0.0734,-3.338369 -1.03971,-4.81107 -1.4744,-2.246979 -2.69213,-2.667785 -7.67785,-2.6532 -3.25904,0.0095 -6.47289,0.39159 -7.14188,0.849012 -0.668993,0.457423 -1.529523,1.680984 -1.912313,2.719022 -0.39929,1.082817 -0.047,2.136013 0.82642,2.470695 0.837313,0.320843 2.436453,-0.425222 3.553643,-1.657921 1.24732,-1.376291 3.14786,-2.111374 4.92452,-1.904687 2.15508,0.250709 2.97996,1.080719 3.233,3.253131 0.27361,2.348878 -1.43644,4.67828 -8.78579,11.967936 -5.019043,4.978264 -9.125523,9.651353 -9.125523,10.38465 0,0.918428 2.99814,1.333255 9.636033,1.333255 7.56262,0 9.63604,-0.345446 9.63604,-1.605437 z"
     id="path5196"
     inkscape:connector-curvature="0"
     sodipodi:nodetypes="ssssssssssssssssssssssssssssssssssssscssssssssssssssssscsssscsccsssssssssssscssssssssscsssssscssssssssssssssssssssssssssssssssscssssssssscsssssss" />
</svg>
