<?xml version="1.0" encoding="UTF-8" standalone="no"?>
<!-- Created with Inkscape (http://www.inkscape.org/) -->

<svg
   xmlns:dc="http://purl.org/dc/elements/1.1/"
   xmlns:cc="http://creativecommons.org/ns#"
   xmlns:rdf="http://www.w3.org/1999/02/22-rdf-syntax-ns#"
   xmlns:svg="http://www.w3.org/2000/svg"
   xmlns="http://www.w3.org/2000/svg"
   xmlns:sodipodi="http://sodipodi.sourceforge.net/DTD/sodipodi-0.dtd"
   xmlns:inkscape="http://www.inkscape.org/namespaces/inkscape"
   id="svg3509"
   version="1.1"
   inkscape:version="0.91 r13725"
   width="200"
   height="200"
   viewBox="0 0 200 200"
   sodipodi:docname="geography.svg">
  <metadata
     id="metadata3515">
    <rdf:RDF>
      <cc:Work
         rdf:about="">
        <dc:format>image/svg+xml</dc:format>
        <dc:type
           rdf:resource="http://purl.org/dc/dcmitype/StillImage" />
        <dc:title></dc:title>
      </cc:Work>
    </rdf:RDF>
  </metadata>
  <defs
     id="defs3513" />
  <sodipodi:namedview
     pagecolor="#ffffff"
     bordercolor="#666666"
     borderopacity="1"
     objecttolerance="10"
     gridtolerance="10"
     guidetolerance="10"
     inkscape:pageopacity="0"
     inkscape:pageshadow="2"
     inkscape:window-width="1280"
     inkscape:window-height="657"
     id="namedview3511"
     showgrid="false"
     fit-margin-left="1"
     fit-margin-top="1"
     fit-margin-right="1"
     fit-margin-bottom="1"
     inkscape:zoom="1"
     inkscape:cx="314.72123"
     inkscape:cy="138.26856"
     inkscape:window-x="-8"
     inkscape:window-y="-8"
     inkscape:window-maximized="1"
     inkscape:current-layer="svg3509" />
  <path
     style="fill:#000000"
     d=""
     id="path3926"
     inkscape:connector-curvature="0" />
  <path
     style="fill:#000000"
     d=""
     id="path3924"
     inkscape:connector-curvature="0" />
  <path
     style="fill:#d30054"
     d="M 82.146264,197.43712 C 77.793518,196.62654 71.688368,195.10127 68.579265,194.04764 65.470161,192.99401 59.284683,190.32846 54.833758,188.1242 50.382843,185.91995 42.933182,181.14632 38.278955,177.51616 33.624728,173.886 26.728272,167.0756 22.95348,162.38193 19.1787,157.68827 13.777067,149.14756 10.949874,143.40256 8.1226809,137.65758 4.7424859,128.88588 3.4383359,123.9099 c -1.771489,-6.75917 -2.387397,-12.62236 -2.435345,-23.18355 -0.049519,-10.900608 0.505699,-16.466005 2.425542,-24.314448 1.36934,-5.597977 4.461904,-14.249397 6.8723641,-19.225377 2.410449,-4.97598 6.891097,-12.355132 9.956979,-16.398116 3.065882,-4.042983 8.674977,-10.22179 12.464658,-13.730682 3.789681,-3.508892 10.67049,-8.736542 15.290686,-11.617002 4.620196,-2.88046 12.443923,-6.7133389 17.386064,-8.5175094 4.942142,-1.8041694 12.258281,-3.8827534 16.258093,-4.6190744 3.999811,-0.736322 12.659769,-1.32297502 19.244353,-1.303676 8.12825,0.02383 15.20644,0.800454 22.04637,2.418962 5.54093,1.311129 14.68129,4.620629 20.31191,7.3544448 5.63062,2.733816 13.78649,7.748254 18.12415,11.143198 4.33765,3.394945 10.21728,8.902609 13.06586,12.239256 2.84858,3.336647 7.26831,9.301021 9.82164,13.254165 2.55333,3.953142 6.23369,11.31498 8.17856,16.359651 1.94488,5.04466 4.31318,13.26067 5.26289,18.257809 1.25051,6.579852 1.54675,12.828585 1.07406,22.656569 -0.35898,7.46397 -1.48167,16.62429 -2.49488,20.35628 -1.01319,3.73198 -3.82395,11.0315 -6.24612,16.22115 -2.42217,5.18965 -6.64819,12.58164 -9.39115,16.42665 -2.74297,3.84501 -8.56514,10.36713 -12.93818,14.4936 -4.37304,4.12647 -11.43262,9.57167 -15.68797,12.10045 -4.25534,2.52877 -11.03574,5.94381 -15.06755,7.58899 -4.03181,1.64517 -11.90942,3.94128 -17.5058,5.10246 -5.6664,1.17571 -14.43362,2.07259 -19.785214,2.02402 -5.28548,-0.0479 -13.171297,-0.75041 -17.524042,-1.561 z m 24.978156,-41.66321 c 4.41068,-5.08526 11.59306,-13.82609 15.96086,-19.42407 4.36778,-5.59797 10.99799,-14.7583 14.7338,-20.35628 3.73581,-5.59798 8.83458,-14.25324 11.33061,-19.233915 2.49602,-4.980684 5.35769,-11.816064 6.35929,-15.189744 1.00159,-3.37368 1.82107,-8.351956 1.82107,-11.062836 0,-2.710869 -1.01283,-6.914735 -2.25073,-9.341916 -1.23789,-2.42717 -3.9089,-5.633454 -5.93556,-7.125072 -2.02666,-1.491624 -5.32915,-3.360227 -7.33887,-4.152456 -2.21327,-0.872468 -6.76335,-1.264677 -11.53976,-0.994709 -6.5046,0.367647 -8.71694,1.033918 -12.63179,3.804209 -2.61034,1.84717 -6.21796,5.187025 -8.01691,7.421896 -1.79894,2.234871 -4.43722,6.934119 -5.86284,10.442772 -2.59204,6.379376 -2.59204,6.379376 -4.415514,-0.181182 -1.00292,-3.608309 -3.5007,-9.070917 -5.5506,-12.139129 -2.42533,-3.630102 -5.489076,-6.467323 -8.771668,-8.123106 -3.45158,-1.741027 -7.021724,-2.536693 -11.305832,-2.519699 -3.6269,0.01439 -8.164032,0.897928 -10.783628,2.099952 -2.487283,1.141312 -5.994239,3.547445 -7.793246,5.346962 -1.799007,1.799518 -4.204458,5.307471 -5.345443,7.795461 -1.246004,2.716986 -2.084445,7.168374 -2.099357,11.14581 -0.01368,3.642203 0.77082,9.749087 1.743269,13.570855 0.972448,3.821767 4.501734,12.669757 7.842856,19.662207 3.341111,6.99247 9.226147,17.42506 13.077852,23.18355 3.851694,5.7585 8.812184,12.76007 11.0233,15.55906 2.211116,2.79899 6.766236,8.26974 10.122497,12.15723 3.35625,3.88748 6.44082,7.03033 6.8546,6.98411 0.41378,-0.0462 4.361074,-4.24471 8.771744,-9.32996 z"
     id="path5170"
     inkscape:connector-curvature="0" />
</svg>
