<?xml version="1.0" encoding="UTF-8" standalone="no"?>
<!-- Created with Inkscape (http://www.inkscape.org/) -->

<svg
   xmlns:dc="http://purl.org/dc/elements/1.1/"
   xmlns:cc="http://creativecommons.org/ns#"
   xmlns:rdf="http://www.w3.org/1999/02/22-rdf-syntax-ns#"
   xmlns:svg="http://www.w3.org/2000/svg"
   xmlns="http://www.w3.org/2000/svg"
   xmlns:sodipodi="http://sodipodi.sourceforge.net/DTD/sodipodi-0.dtd"
   xmlns:inkscape="http://www.inkscape.org/namespaces/inkscape"
   id="svg3509"
   version="1.1"
   inkscape:version="0.91 r13725"
   width="200"
   height="200"
   viewBox="0 0 200 200"
   sodipodi:docname="geography.svg">
  <metadata
     id="metadata3515">
    <rdf:RDF>
      <cc:Work
         rdf:about="">
        <dc:format>image/svg+xml</dc:format>
        <dc:type
           rdf:resource="http://purl.org/dc/dcmitype/StillImage" />
        <dc:title></dc:title>
      </cc:Work>
    </rdf:RDF>
  </metadata>
  <defs
     id="defs3513" />
  <sodipodi:namedview
     pagecolor="#ffffff"
     bordercolor="#666666"
     borderopacity="1"
     objecttolerance="10"
     gridtolerance="10"
     guidetolerance="10"
     inkscape:pageopacity="0"
     inkscape:pageshadow="2"
     inkscape:window-width="1280"
     inkscape:window-height="657"
     id="namedview3511"
     showgrid="false"
     fit-margin-left="1"
     fit-margin-top="1"
     fit-margin-right="1"
     fit-margin-bottom="1"
     inkscape:zoom="1.4142136"
     inkscape:cx="306.77721"
     inkscape:cy="31.24307"
     inkscape:window-x="-8"
     inkscape:window-y="-8"
     inkscape:window-maximized="1"
     inkscape:current-layer="svg3509" />
  <path
     style="fill:#000000"
     d=""
     id="path3926"
     inkscape:connector-curvature="0" />
  <path
     style="fill:#000000"
     d=""
     id="path3924"
     inkscape:connector-curvature="0" />
  <path
     style="fill:#9f2c88"
     d="M 90.574794,198.56 C 36.272408,193.53587 -4.4744387,143.80797 1.6005746,89.974902 2.2415816,84.294664 3.1734656,78.91638 3.6714336,78.02316 c 0.625372,-1.121775 7.4419414,10.552924 22.0409044,37.7493 24.139453,44.96936 22.450614,42.37895 24.736404,37.94178 3.591584,-6.97195 11.821885,-11.55114 20.788291,-11.56619 2.065204,-0.003 3.58594,-0.41019 3.379413,-0.90382 C 74.40993,140.75061 62.15468,117.84893 47.382566,90.351646 19.522549,38.492118 17.935993,33.875645 27.513273,32.537031 c 0.321258,-0.04489 3.80211,6.406259 7.735217,14.335905 28.751034,57.965654 54.250414,88.383284 64.394564,76.814774 2.538116,-2.89452 6.258726,-5.71654 8.527976,-6.46833 C 120.75271,113.05114 99.684734,77.698816 58.752613,34.294692 41.883642,16.406939 42.141603,18.467448 55.892638,11.451016 106.75903,-14.503422 170.63336,9.7978614 191.87428,63.185875 219.19988,131.86742 164.1972,205.37164 90.574794,198.56 Z M 76.831843,174.70841 c 1.650269,-1.65661 1.811118,-11.08172 0.189112,-11.08172 -7.983019,0 -12.855896,6.99978 -7.024054,10.0899 5.094206,2.69928 5.128969,2.70433 6.834942,0.99182 z m -9.783841,-8.37891 c 1.687702,-1.62312 4.756908,-3.29514 6.820456,-3.71558 4.093979,-0.83415 5.398027,-5.84239 3.778161,-14.5101 -1.501529,-8.03452 -19.900947,-3.48311 -25.195924,6.23264 -3.247515,5.95884 -2.814781,7.20253 4.000853,11.49857 6.591917,4.15503 6.781052,4.16386 10.596454,0.49447 z m 71.361428,-7.50865 c -6.58775,-30.93529 -17.62649,-44.62161 -31.34786,-38.86649 -19.083915,8.00432 -8.586376,27.51965 21.1374,39.2952 10.52473,4.16955 11.18379,4.14188 10.21046,-0.42871 z"
     id="path5034"
     inkscape:connector-curvature="0" />
</svg>
