<?xml version="1.0" encoding="UTF-8" standalone="no"?>
<!-- Created with Inkscape (http://www.inkscape.org/) -->

<svg
   xmlns:dc="http://purl.org/dc/elements/1.1/"
   xmlns:cc="http://creativecommons.org/ns#"
   xmlns:rdf="http://www.w3.org/1999/02/22-rdf-syntax-ns#"
   xmlns:svg="http://www.w3.org/2000/svg"
   xmlns="http://www.w3.org/2000/svg"
   xmlns:sodipodi="http://sodipodi.sourceforge.net/DTD/sodipodi-0.dtd"
   xmlns:inkscape="http://www.inkscape.org/namespaces/inkscape"
   id="svg3509"
   version="1.1"
   inkscape:version="0.91 r13725"
   width="200"
   height="200"
   viewBox="0 0 200 200"
   sodipodi:docname="chem.svg">
  <metadata
     id="metadata3515">
    <rdf:RDF>
      <cc:Work
         rdf:about="">
        <dc:format>image/svg+xml</dc:format>
        <dc:type
           rdf:resource="http://purl.org/dc/dcmitype/StillImage" />
        <dc:title></dc:title>
      </cc:Work>
    </rdf:RDF>
  </metadata>
  <defs
     id="defs3513" />
  <sodipodi:namedview
     pagecolor="#ffffff"
     bordercolor="#666666"
     borderopacity="1"
     objecttolerance="10"
     gridtolerance="10"
     guidetolerance="10"
     inkscape:pageopacity="0"
     inkscape:pageshadow="2"
     inkscape:window-width="1280"
     inkscape:window-height="657"
     id="namedview3511"
     showgrid="false"
     fit-margin-left="1"
     fit-margin-top="1"
     fit-margin-right="1"
     fit-margin-bottom="1"
     inkscape:zoom="1.353405"
     inkscape:cx="239.77886"
     inkscape:cy="49.468018"
     inkscape:window-x="-8"
     inkscape:window-y="-8"
     inkscape:window-maximized="1"
     inkscape:current-layer="svg3509" />
  <path
     style="fill:#432077"
     d="M 89.017147,198.37607 C -20.116393,187.97186 -31.211063,32.994608 75.133145,4.4356235 169.98573,-21.037265 240.88291,101.26822 170.58222,169.09583 c -6.39828,6.17322 -4.7857,9.51562 -17.08318,-35.40828 C 124.46467,27.622119 125.02484,29.407647 120.78392,29.407647 c -2.28427,0 -36.257581,8.952457 -53.875008,14.196849 -11.985317,3.567806 -12.021801,4.331519 -0.949079,19.865732 8.409528,11.797934 8.409528,11.797934 24.956282,71.668092 18.262715,66.07889 17.673075,63.37188 13.803595,63.37188 -1.50873,0 -3.42301,0.18299 -4.25391,0.40666 -0.830908,0.22365 -5.982805,-0.0197 -11.448653,-0.54079 z M 116.8021,195.97366 C 116.17072,195.1986 109.12792,170.84104 101.15143,141.84577 86.648702,89.127058 86.648702,89.127058 89.86945,85.786143 c 4.905397,-5.088405 9.633755,-6.21368 19.0686,-4.538018 7.03006,1.248561 8.588,1.177394 13.9613,-0.637731 7.59167,-2.564506 6.38194,-4.496575 13.58239,21.692376 7.4629,27.14358 7.49639,24.74101 -0.37586,26.95969 -10.82951,3.05213 -14.54827,6.73794 -9.50472,9.42045 1.52988,0.81369 4.30174,0.50816 9.9258,-1.09408 7.38588,-2.10419 7.88074,-2.11839 9.25391,-0.26561 2.67326,3.60694 1.06106,5.22656 -7.86995,7.9061 -9.08665,2.72624 -10.86225,4.36911 -8.37531,7.74914 1.44437,1.96306 1.81177,1.96267 10.23679,-0.0113 4.84898,-1.1361 9.16764,-1.61727 9.70246,-1.08106 2.48463,2.49113 8.25812,27.36358 6.76637,29.14988 -5.46369,6.54259 -36.65438,18.35607 -39.43913,14.9376 z M 83.380987,77.544871 C 82.384553,74.063844 79.00366,67.875514 75.282282,62.72112 68.213032,52.929673 68.034621,52.457048 70.879237,51.056778 74.727832,49.162286 117.6515,38.030036 118.36679,38.740886 c 0.95381,0.947922 9.42982,31.221268 9.47774,33.851301 0.0746,4.097088 -9.3526,6.88383 -18.31257,5.413283 -8.91417,-1.463019 -16.53707,-0.160263 -19.757871,3.376645 -3.110938,3.416255 -4.566966,2.542321 -6.393102,-3.837244 z"
     id="path3877"
     inkscape:connector-curvature="0" />
</svg>
