<?xml version="1.0" encoding="UTF-8" standalone="no"?>
<!-- Created with Inkscape (http://www.inkscape.org/) -->

<svg
   xmlns:dc="http://purl.org/dc/elements/1.1/"
   xmlns:cc="http://creativecommons.org/ns#"
   xmlns:rdf="http://www.w3.org/1999/02/22-rdf-syntax-ns#"
   xmlns:svg="http://www.w3.org/2000/svg"
   xmlns="http://www.w3.org/2000/svg"
   xmlns:sodipodi="http://sodipodi.sourceforge.net/DTD/sodipodi-0.dtd"
   xmlns:inkscape="http://www.inkscape.org/namespaces/inkscape"
   id="svg3509"
   version="1.1"
   inkscape:version="0.91 r13725"
   width="200"
   height="200"
   viewBox="0 0 200 200"
   sodipodi:docname="physics.svg">
  <metadata
     id="metadata3515">
    <rdf:RDF>
      <cc:Work
         rdf:about="">
        <dc:format>image/svg+xml</dc:format>
        <dc:type
           rdf:resource="http://purl.org/dc/dcmitype/StillImage" />
        <dc:title></dc:title>
      </cc:Work>
    </rdf:RDF>
  </metadata>
  <defs
     id="defs3513" />
  <sodipodi:namedview
     pagecolor="#ffffff"
     bordercolor="#666666"
     borderopacity="1"
     objecttolerance="10"
     gridtolerance="10"
     guidetolerance="10"
     inkscape:pageopacity="0"
     inkscape:pageshadow="2"
     inkscape:window-width="1280"
     inkscape:window-height="657"
     id="namedview3511"
     showgrid="false"
     fit-margin-left="1"
     fit-margin-top="1"
     fit-margin-right="1"
     fit-margin-bottom="1"
     inkscape:zoom="1"
     inkscape:cx="214.38071"
     inkscape:cy="96.261971"
     inkscape:window-x="-8"
     inkscape:window-y="-8"
     inkscape:window-maximized="1"
     inkscape:current-layer="svg3509" />
  <path
     style="fill:#000000"
     d=""
     id="path3926"
     inkscape:connector-curvature="0" />
  <path
     style="fill:#000000"
     d=""
     id="path3924"
     inkscape:connector-curvature="0" />
  <path
     style="fill:#d35402"
     d="m 99.85616,198.99536 c -35.181703,-0.0379 -35.181703,-0.0379 -42.569196,-3.86313 -4.063122,-2.10389 -9.913008,-5.61041 -12.999747,-7.79227 -3.08674,-2.18186 -8.537197,-6.83702 -12.112128,-10.34481 -6.499873,-6.37777 -6.499873,-6.37777 -6.499873,-13.79937 0,-4.16829 0.495524,-7.42159 1.130412,-7.42159 0.621727,0 1.130413,0.55296 1.130413,1.22882 0,0.67585 1.801229,2.00722 4.002733,2.95861 3.410446,1.47382 13.87847,1.68124 70.744126,1.40179 66.74141,-0.32799 66.74141,-0.32799 70.03931,-4.14622 3.29791,-3.81822 3.29791,-3.81822 3.29791,4.19905 0,8.01728 0,8.01728 -7.12063,15.08925 -3.91634,3.88957 -10.65643,9.42508 -14.97797,12.30112 -4.32154,2.87603 -10.33826,6.35359 -13.3705,7.72789 -5.25033,2.37964 -7.19034,2.49694 -40.69486,2.46086 z m 4.07611,-2.64748 c 23.43203,-0.23754 23.43203,-0.23754 26.43836,-3.34864 2.20244,-2.2792 3.15076,-4.66566 3.54643,-8.92472 0.29706,-3.19748 -0.07,-7.72554 -0.81562,-10.06232 -0.8471,-2.65471 -2.57165,-4.89905 -4.59668,-5.98212 -2.56958,-1.37434 -8.28347,-1.73342 -27.58312,-1.73342 -24.342181,0 -24.342181,0 -27.949472,3.3336 -3.325195,3.07292 -3.61389,3.92264 -3.691676,10.86585 -0.05971,5.32944 0.495868,8.44827 1.899719,10.66452 1.091256,1.72274 3.634685,3.64808 5.652064,4.27853 2.017379,0.63045 14.212375,1.03937 27.099995,0.90872 z m -2.12939,-4.32961 c -23.515114,0 -24.193353,-0.0669 -26.672105,-2.63062 -2.543429,-2.63062 -2.543429,-2.63062 25.602575,-2.94371 15.4803,-0.17221 28.40628,-0.044 28.7244,0.28511 0.31811,0.32903 -0.34514,1.6537 -1.4739,2.94372 -1.93227,2.20833 -3.46333,2.3455 -26.18097,2.3455 z m -0.39001,-8.18415 c -28.260317,0 -28.260317,0 -28.260317,-4.49545 0,-2.87029 0.747329,-5.19495 2.067232,-6.4304 1.789274,-1.67478 5.350272,-1.93495 26.483955,-1.93495 20.68981,0 24.68786,0.28043 26.19309,1.83726 1.01199,1.04668 1.77636,3.81369 1.77636,6.4304 0,4.59314 0,4.59314 -28.26032,4.59314 z M 17.762326,131.69847 C 17.19712,159.86626 17.19712,159.86626 11.81647,148.7592 8.8571144,142.65032 5.3894654,133.44316 4.1105864,128.29884 c -1.27888,-5.14433 -2.603668,-14.3515 -2.943974,-20.46038 -0.42341499,-7.60075 -0.045341,-14.505384 1.197627,-21.872091 0.999001,-5.920771 3.112257,-14.325933 4.696124,-18.678122 1.583868,-4.352201 4.7669256,-11.345719 7.0734646,-15.541158 4.193705,-7.628058 4.193705,-7.628058 4.758911,11.758877 0.536219,18.392665 0.714632,19.61953 3.47882,23.922357 2.913616,4.535428 2.913616,4.535428 -0.565206,10.318894 -3.47882,5.783463 -3.47882,5.783463 -4.044027,33.951253 z M 184.484,156.94335 c -0.30305,0 -0.55099,-11.85875 -0.55099,-26.35277 0,-23.98228 -0.20192,-26.76211 -2.24468,-30.903515 -1.23456,-2.502914 -2.73858,-4.866471 -3.34225,-5.252352 -0.6113,-0.390747 0.50845,-3.057751 2.52727,-6.019507 3.57104,-5.238946 3.63384,-5.563893 4.22955,-21.884133 0.6047,-16.566223 0.6047,-16.566223 4.8654,-7.444955 2.34339,5.016706 5.33178,13.171625 6.64086,18.122045 1.90692,7.211221 2.38223,12.371366 2.39067,25.953647 0.009,15.05895 -0.32739,18.10077 -3.01411,27.22786 -1.66354,5.65125 -4.80799,13.9377 -6.98767,18.41434 -2.17968,4.47663 -4.21101,8.13934 -4.51405,8.13934 z M 36.979344,155.77419 c -1.243455,0 -3.278198,-1.05225 -4.521652,-2.33833 -1.712747,-1.77146 -2.260825,-3.89721 -2.260825,-8.76873 0,-6.4304 0,-6.4304 4.521651,-6.4304 4.521651,0 4.521651,0 4.521651,8.76873 0,7.98928 -0.200962,8.76873 -2.260825,8.76873 z m 10.173715,0 c -5.652064,0 -5.652064,0 -5.652064,-5.26124 0,-5.26124 0,-5.26124 5.652064,-5.26124 5.652064,0 5.652064,0 5.652064,5.26124 0,5.26124 0,5.26124 -5.652064,5.26124 z m 13.564953,0 c -5.652064,0 -5.652064,0 -5.652064,-5.26124 0,-5.26124 0,-5.26124 5.652064,-5.26124 5.652064,0 5.652064,0 5.652064,5.26124 0,5.26124 0,5.26124 -5.652064,5.26124 z m 33.311698,0 c -20.921472,0 -25.579414,-0.29554 -26.083791,-1.65499 -0.337715,-0.91024 -0.448922,-3.14627 -0.247126,-4.96895 0.366902,-3.31396 0.366902,-3.31396 26.083797,-3.62819 25.71689,-0.31425 25.71689,-0.31425 25.71689,4.96894 0,5.28319 0,5.28319 -25.46977,5.28319 z m 32.78198,0 c -3.37454,0 -5.33185,-0.5647 -5.73637,-1.65499 -0.33771,-0.91024 -0.44892,-3.14627 -0.24712,-4.96895 0.33887,-3.0608 0.77708,-3.34117 5.73636,-3.67031 5.36946,-0.35635 5.36946,-0.35635 5.36946,4.96895 0,5.3253 0,5.3253 -5.12233,5.3253 z m 11.9048,0 c -4.52165,0 -4.52165,0 -4.52165,-5.26124 0,-5.26124 0,-5.26124 4.52165,-5.26124 4.52166,0 4.52166,0 4.52166,5.26124 0,5.26124 0,5.26124 -4.52166,5.26124 z m 11.30413,0 c -4.52165,0 -4.52165,0 -4.52165,-5.26124 0,-5.26124 0,-5.26124 4.52165,-5.26124 4.52165,0 4.52165,0 4.52165,5.26124 0,5.26124 0,5.26124 -4.52165,5.26124 z m 12.21849,0 c -4.3056,0 -4.3056,0 -4.3056,-5.31958 0,-5.31959 0,-5.31959 6.49988,-4.96895 6.45367,0.34814 6.49809,0.3755 6.24952,3.84943 -0.13771,1.92432 -1.12513,4.16035 -2.19428,4.96894 -1.06916,0.80859 -3.88144,1.47016 -6.24952,1.47016 z M 47.624064,143.49797 c -2.849583,0 -5.393011,-0.21922 -5.652064,-0.48716 -0.259053,-0.26793 -0.471005,-1.4517 -0.471005,-2.63062 0,-1.79271 0.924883,-2.14346 5.652064,-2.14346 5.107791,0 5.652064,0.25332 5.652064,2.63062 0,2.34541 -0.561718,2.63062 -5.181059,2.63062 z m 17.898203,-0.353 c -0.466296,0.20327 -3.009725,0.20407 -5.652064,0.002 -3.881196,-0.2977 -4.804255,-0.80474 -4.804255,-2.63948 0,-1.94588 0.809376,-2.2711 5.652064,-2.2711 4.84117,0 5.652064,0.32558 5.652064,2.26932 0,1.24813 -0.381514,2.43565 -0.847809,2.63892 z m 8.665944,-0.0521 c -3.160751,0.22282 -5.958522,0.18591 -6.21727,-0.0821 -0.258748,-0.26787 -0.470452,-1.45164 -0.470452,-2.63056 0,-1.81869 0.94201,-2.14346 6.21727,-2.14346 5.358583,0 6.217271,0.30737 6.217271,2.22549 0,1.84291 -0.987925,2.29513 -5.746819,2.63062 z m 13.094502,0.40514 c -4.521651,0 -5.086858,-0.2923 -5.086858,-2.63062 0,-2.33833 0.565207,-2.63062 5.086858,-2.63062 4.521647,0 5.086857,0.29229 5.086857,2.63062 0,2.33832 -0.56521,2.63062 -5.086857,2.63062 z m 18.369207,0.37384 c -0.15543,-0.11587 -2.69886,-0.4078 -5.65206,-0.64864 -4.42034,-0.3605 -5.36946,-0.83992 -5.36946,-2.71217 0,-1.94969 0.80667,-2.27427 5.65206,-2.27427 5.27526,0 5.65206,0.19486 5.65206,2.92291 0,1.6076 -0.12717,2.82808 -0.2826,2.71217 z m 7.91201,-0.51087 c -4.85512,0.12388 -5.37025,-0.1154 -5.36946,-2.49359 8e-4,-2.382 0.54251,-2.63062 5.73156,-2.63062 5.20893,0 5.6978,0.22703 5.36946,2.49359 -0.307,2.11932 -1.16728,2.51416 -5.73156,2.63062 z m 12.90476,0.009 c -2.69508,0.0702 -5.11133,-0.0915 -5.36946,-0.35953 -0.25814,-0.26788 -0.46934,-1.45165 -0.46934,-2.63057 0,-1.79663 0.92727,-2.14346 5.73068,-2.14346 5.21523,0 5.6982,0.22513 5.36946,2.50299 -0.30178,2.09116 -1.16746,2.52398 -5.26134,2.63062 z m 12.2478,-0.25652 c -4.07734,0.40217 -4.52165,0.18447 -4.52165,-2.21552 0,-2.32567 0.57059,-2.66152 4.52165,-2.66152 3.68451,0 4.52166,0.41019 4.52166,2.21552 0,1.731 -0.98886,2.31306 -4.52166,2.66152 z m 31.99549,-0.32227 c -0.50003,0.38856 -3.57973,0.54744 -6.8438,0.35307 -5.73981,-0.34178 -5.93467,-0.46654 -5.93467,-3.79978 0,-3.398 -0.0873,-3.44639 -6.21727,-3.44639 -6.21727,0 -6.21727,0 -6.21727,-4.13036 0,-4.13037 0,-4.13037 12.71715,-3.79979 12.71714,0.33059 12.71714,0.33059 13.06107,7.22368 0.18916,3.7912 -0.0652,7.21101 -0.56521,7.59957 z m -20.12615,-10.62852 c 1.86518,0.0238 2.76506,-0.2187 1.99973,-0.53897 -0.76532,-0.32026 -2.29138,-0.33975 -3.39124,-0.0433 -1.09985,0.29643 -0.47367,0.55846 1.39151,0.58229 z m -0.56521,10.7504 c -3.76804,0 -4.52165,-0.38971 -4.52165,-2.33832 0,-1.94861 0.75361,-2.33833 4.52165,-2.33833 3.76804,0 4.52165,0.38972 4.52165,2.33833 0,1.94861 -0.75361,2.33832 -4.52165,2.33832 z M 34.718518,135.8984 c -4.413993,0 -4.521651,-0.0974 -4.521651,-4.09207 0,-3.99465 0.10766,-4.09208 4.521651,-4.09208 4.413993,0 4.521651,0.0974 4.521651,4.09208 0,3.99464 -0.10766,4.09207 -4.521651,4.09207 z m 12.434541,0 c -5.652064,0 -5.652064,0 -5.652064,-4.09207 0,-4.09208 0,-4.09208 5.652064,-4.09208 5.652064,0 5.652064,0 5.652064,4.09208 0,4.09207 0,4.09207 -5.652064,4.09207 z m 13.564953,0 c -5.652064,0 -5.652064,0 -5.652064,-4.09207 0,-4.09208 0,-4.09208 5.652064,-4.09208 5.652064,0 5.652064,0 5.652064,4.09208 0,4.09207 0,4.09207 -5.652064,4.09207 z m 13.529476,0 c -3.910371,0 -5.882938,-0.52665 -6.312873,-1.68545 -0.343933,-0.927 -0.450375,-2.6369 -0.236539,-3.79979 0.305598,-1.66189 1.656458,-2.18995 6.312874,-2.46772 5.92408,-0.35339 5.92408,-0.35339 5.92408,3.79979 0,4.15317 0,4.15317 -5.687542,4.15317 z m 13.035225,0 c -5.059943,0 -5.086858,-0.0216 -5.086858,-4.09207 0,-4.07042 0.02692,-4.09208 5.086858,-4.09208 5.059947,0 5.086857,0.0216 5.086857,4.09208 0,4.07042 -0.0269,4.09207 -5.086857,4.09207 z m 12.999747,0 c -5.65206,0 -5.65206,0 -5.65206,-4.09207 0,-4.09208 0,-4.09208 5.65206,-4.09208 5.65206,0 5.65206,0 5.65206,4.09208 0,4.09207 0,4.09207 -5.65206,4.09207 z m 13.63658,0 c -5.72369,0 -5.72369,0 -5.72369,-4.15613 0,-4.15613 0,-4.15613 5.36946,-3.79978 5.14847,0.34168 5.38404,0.51273 5.72369,4.15613 0.35422,3.79978 0.35422,3.79978 -5.36946,3.79978 z m 12.29129,0 c -5.72369,0 -5.72369,0 -5.36946,-3.79978 0.33964,-3.6434 0.57522,-3.81445 5.72369,-4.15613 5.36946,-0.35635 5.36946,-0.35635 5.36946,3.79978 0,4.15613 0,4.15613 -5.72369,4.15613 z m 12.50616,0 c -4.41399,0 -4.52165,-0.0974 -4.52165,-4.09207 0,-3.99465 0.10762,-4.09208 4.52165,-4.09208 4.414,0 4.52166,0.0974 4.52166,4.09208 0,3.99464 -0.10762,4.09207 -4.52166,4.09207 z M 35.350438,126.54509 c -2.139353,0 -4.178771,-0.48371 -4.532041,-1.07491 -0.353271,-0.5912 0.161728,-1.90651 1.144443,-2.92291 0.982714,-1.0164 3.022132,-1.848 4.532041,-1.848 2.174699,0 2.745288,0.60751 2.745288,2.92291 0,2.55148 -0.494293,2.92291 -3.889731,2.92291 z m 11.802621,0 c -5.27526,0 -5.652064,-0.19487 -5.652064,-2.92291 0,-2.72805 0.376804,-2.92291 5.652064,-2.92291 5.27526,0 5.652064,0.19486 5.652064,2.92291 0,2.72804 -0.376804,2.92291 -5.652064,2.92291 z m 13.28235,-0.22823 c -5.094431,0.3381 -5.369461,0.20335 -5.369461,-2.63062 0,-2.81038 0.338789,-2.98697 5.730686,-2.98697 5.296353,0 5.703307,0.19937 5.36946,2.63062 -0.308257,2.24489 -1.148565,2.68287 -5.730685,2.98697 z m 14.035959,0.22823 c -3.005015,0 -5.802786,-0.35075 -6.21727,-0.77945 -0.414485,-0.42868 -0.753609,-1.74399 -0.753609,-2.92291 0,-1.81869 0.94201,-2.14346 6.21727,-2.14346 5.878147,0 6.217271,0.15942 6.217271,2.92291 0,2.71461 -0.389364,2.92291 -5.463662,2.92291 z m 12.811345,0 c -4.615444,0 -5.086858,-0.25996 -5.086858,-2.80519 0,-2.48322 0.583828,-2.8532 5.086858,-3.22362 4.896737,-0.40281 5.086857,-0.29796 5.086857,2.80518 0,3.04116 -0.28794,3.22363 -5.086857,3.22363 z m 12.999747,0 c -5.27526,0 -5.65206,-0.19487 -5.65206,-2.92291 0,-2.72805 0.3768,-2.92291 5.65206,-2.92291 5.27526,0 5.65206,0.19486 5.65206,2.92291 0,2.72804 -0.3768,2.92291 -5.65206,2.92291 z m 13.28235,-0.22823 c -5.09443,0.3381 -5.36946,0.20335 -5.36946,-2.63062 0,-2.81038 0.33878,-2.98697 5.73068,-2.98697 5.29636,0 5.70331,0.19937 5.36946,2.63062 -0.30825,2.24489 -1.14856,2.68287 -5.73068,2.98697 z m 13.47076,0.22823 c -2.69416,0 -5.23759,-0.35075 -5.65207,-0.77945 -0.41449,-0.42868 -0.75361,-1.74399 -0.75361,-2.92291 0,-1.79271 0.92488,-2.14346 5.65206,-2.14346 5.27527,0 5.65207,0.19486 5.65207,2.92291 0,2.66809 -0.42705,2.92291 -4.89845,2.92291 z m 11.68092,0 c -4.06948,0 -4.52165,-0.29229 -4.52165,-2.92291 0,-2.63062 0.45217,-2.92291 4.52165,-2.92291 4.06949,0 4.52166,0.29229 4.52166,2.92291 0,2.63062 -0.45217,2.92291 -4.52166,2.92291 z m 12.43455,0 c -5.27527,0 -5.65207,-0.19487 -5.65207,-2.92291 0,-2.72805 0.3768,-2.92291 5.65207,-2.92291 5.27526,0 5.65206,0.19486 5.65206,2.92291 0,2.72804 -0.3768,2.92291 -5.65206,2.92291 z m 13.56495,0 c -5.27526,0 -5.65207,-0.19487 -5.65207,-2.92291 0,-2.60498 0.46724,-2.92291 4.29557,-2.92291 2.36257,0 4.906,0.63134 5.65207,1.40299 0.74607,0.77165 1.35649,2.08696 1.35649,2.92292 0,1.04445 -1.76808,1.51991 -5.65206,1.51991 z m 11.08037,-12.17943 c -0.34145,6.91819 -0.34145,6.91819 -3.378,3.70299 -3.03654,-3.2152 -3.03654,-3.2152 -71.41187,-3.2152 -68.375335,0 -68.375335,0 -71.853305,3.02683 -3.477969,3.02685 -3.477969,3.02685 -3.477969,-2.05375 0,-2.79432 0.496537,-6.87127 1.103416,-9.05987 0.60688,-2.18861 2.221608,-5.21035 3.588285,-6.71498 2.484869,-2.735692 2.484869,-2.735692 70.426273,-2.735692 57.7392,0 68.29527,0.256353 70.29797,1.707182 1.2961,0.938949 2.96182,3.21853 3.7016,5.06574 0.73978,1.84721 1.1914,6.47174 1.0036,10.27675 z m -13.72009,-4.18887 c 1.4081,0 3.08676,-1.01766 3.73036,-2.26147 0.6436,-1.2438 1.17018,-2.81005 1.17018,-3.48054 0,-0.67048 -1.23759,-2.05777 -2.75022,-3.08286 -2.13936,-1.449819 -3.26923,-1.576513 -5.08686,-0.5704 -1.30599,0.7229 -2.33663,2.46135 -2.33663,3.94133 0,1.45637 0.61042,3.2793 1.35649,4.05094 0.74608,0.77165 2.50858,1.403 3.91668,1.403 z m -1.88193,-2.33833 c -0.62173,0 -1.13042,-1.06875 -1.13042,-2.37501 0,-1.30627 0.79723,-2.69144 1.77161,-3.07817 0.97438,-0.38672 2.31364,-0.1425 2.97613,0.5427 0.66249,0.6852 0.82804,2.20189 0.36789,3.37044 -0.78828,2.0018 -0.89038,1.98945 -1.76627,-0.2137 -0.79122,-1.99019 -0.94145,-2.0337 -1.00907,-0.29229 -0.0437,1.12532 -0.58815,2.04603 -1.20987,2.04603 z M 101.99419,87.962677 c -67.455418,0 -67.999397,-0.01891 -70.523008,-2.4506 -1.398775,-1.347831 -3.020751,-3.749638 -3.604391,-5.33735 -0.583639,-1.587712 -1.061163,-12.745643 -1.061163,-24.795397 0,-21.908658 0,-21.908658 3.956445,-25.874847 3.956445,-3.96619 3.956445,-3.96619 3.956445,19.970874 0,19.798937 0.304993,24.387428 1.76424,26.542212 0.970333,1.432834 3.234157,3.391332 5.030721,4.35222 2.771728,1.482452 11.929917,1.747068 60.464601,1.747068 48.53468,0 57.69287,-0.264616 60.4646,-1.747068 1.79657,-0.960888 4.06039,-2.919386 5.03072,-4.35222 1.44249,-2.13004 1.76424,-6.502369 1.76424,-23.974541 0,-11.753161 0.41352,-21.369381 0.91892,-21.369381 0.50541,0 2.28581,1.475625 3.95645,3.279177 3.03752,3.279177 3.03752,3.279177 3.03752,23.460138 0,12.655638 -0.4742,21.133241 -1.27167,22.734721 -0.69942,1.404567 -2.31415,3.737535 -3.58829,5.184375 -2.31661,2.630619 -2.31661,2.630619 -70.29638,2.630619 z m -0.0161,-12.860803 c -48.359214,0 -55.773763,-0.232811 -57.964746,-1.820042 -2.465477,-1.78608 -2.512349,-2.29531 -2.512349,-27.29415 0,-22.781988 0.209058,-25.668174 1.978222,-27.310569 1.088022,-1.010064 5.793366,-3.954299 10.456318,-6.542747 4.662953,-2.5884465 13.056268,-6.1525835 18.651811,-7.9203125 9.227545,-2.915147 11.803232,-3.214055 27.695114,-3.214055 15.89189,0 18.46756,0.298908 27.69511,3.214055 5.59555,1.767729 13.98886,5.331644 18.65181,7.9198105 4.66296,2.588166 10.13133,6.003762 12.15194,7.5902 3.67384,2.884433 3.67384,2.884433 3.67384,27.311084 0,23.916416 -0.0524,24.464661 -2.51235,26.246684 -2.19098,1.587231 -9.60552,1.820042 -57.96473,1.820042 z"
     id="path4982"
     inkscape:connector-curvature="0" />
</svg>
