<?xml version="1.0" encoding="UTF-8" standalone="no"?>
<!-- Created with Inkscape (http://www.inkscape.org/) -->

<svg
   xmlns:dc="http://purl.org/dc/elements/1.1/"
   xmlns:cc="http://creativecommons.org/ns#"
   xmlns:rdf="http://www.w3.org/1999/02/22-rdf-syntax-ns#"
   xmlns:svg="http://www.w3.org/2000/svg"
   xmlns="http://www.w3.org/2000/svg"
   xmlns:sodipodi="http://sodipodi.sourceforge.net/DTD/sodipodi-0.dtd"
   xmlns:inkscape="http://www.inkscape.org/namespaces/inkscape"
   id="svg3509"
   version="1.1"
   inkscape:version="0.91 r13725"
   width="200"
   height="200"
   viewBox="0 0 200 200"
   sodipodi:docname="geography.svg">
  <metadata
     id="metadata3515">
    <rdf:RDF>
      <cc:Work
         rdf:about="">
        <dc:format>image/svg+xml</dc:format>
        <dc:type
           rdf:resource="http://purl.org/dc/dcmitype/StillImage" />
        <dc:title></dc:title>
      </cc:Work>
    </rdf:RDF>
  </metadata>
  <defs
     id="defs3513" />
  <sodipodi:namedview
     pagecolor="#ffffff"
     bordercolor="#666666"
     borderopacity="1"
     objecttolerance="10"
     gridtolerance="10"
     guidetolerance="10"
     inkscape:pageopacity="0"
     inkscape:pageshadow="2"
     inkscape:window-width="1280"
     inkscape:window-height="657"
     id="namedview3511"
     showgrid="false"
     fit-margin-left="1"
     fit-margin-top="1"
     fit-margin-right="1"
     fit-margin-bottom="1"
     inkscape:zoom="1.4142136"
     inkscape:cx="306.77721"
     inkscape:cy="31.24307"
     inkscape:window-x="-8"
     inkscape:window-y="-8"
     inkscape:window-maximized="1"
     inkscape:current-layer="svg3509" />
  <path
     style="fill:#000000"
     d=""
     id="path3926"
     inkscape:connector-curvature="0" />
  <path
     style="fill:#000000"
     d=""
     id="path3924"
     inkscape:connector-curvature="0" />
  <path
     style="fill:#00647e"
     d="M 90.573402,198.68642 C 8.9049872,192.26984 -28.663701,91.22784 28.375888,31.404523 92.824872,-36.18978 208.64114,17.270049 198.35856,109.86712 c -1.93211,17.39914 -12.66064,46.46348 -14.90362,40.37497 -1.50635,-4.08891 -4.33888,-4.25568 -7.59832,-0.44736 -1.61705,1.88936 -3.75914,3.71322 -4.76019,4.05301 -1.37848,0.46792 -2.01408,2.85096 -2.61965,9.82177 -1.76158,20.27806 -41.00182,37.91622 -77.903378,35.01691 z m 50.826978,-13.61358 c 3.37503,-3.20519 6.13641,-6.75998 6.13641,-7.89955 0,-1.15765 1.49679,-2.84916 3.392,-3.83327 3.13419,-1.62747 3.33803,-2.10022 2.68199,-6.21989 -0.6401,-4.01954 -0.42299,-4.58986 2.20488,-5.79217 6.18635,-2.83036 8.74704,-8.99393 8.17708,-19.68222 -0.51129,-9.58815 -0.51129,-9.58815 6.29913,-16.36345 7.94593,-7.90494 13.00977,-16.13756 14.93963,-24.28837 0.72204,-3.049505 0.58735,-3.212484 -2.10584,-2.548494 -1.58247,0.390157 -4.2233,1.038436 -5.86851,1.440622 -6.00076,1.466972 -13.61777,-5.893209 -20.68393,-19.986522 -0.78086,-1.557411 -3.3873,-5.485699 -5.79209,-8.729532 -2.40478,-3.243832 -4.37233,-6.684294 -4.37233,-7.645472 0,-1.324105 -1.29837,-1.757326 -5.35794,-1.787726 -2.94687,-0.02209 -6.62693,-0.768569 -8.17791,-1.658864 -4.14884,-2.381525 -7.99459,-2.131093 -8.69707,0.566331 -0.74368,2.855612 -3.45913,2.855612 -7.09476,0 -1.55099,-1.218224 -3.96206,-2.226282 -5.35795,-2.240134 -1.94848,-0.01937 -2.53797,-0.682883 -2.53797,-2.856847 0,-4.179423 -24.523052,-4.410588 -30.039668,-0.283166 -10.436811,7.808598 -22.975762,22.38635 -22.975762,26.711547 0,2.357773 -0.74525,5.276259 -1.656112,6.485512 -2.694718,3.577504 -2.16286,9.888371 1.092118,12.958945 1.550984,1.46311 2.81997,3.32353 2.81997,4.13428 0,7.12232 18.12433,11.82579 28.024748,7.27275 3.465198,-1.5936 3.889438,-1.57525 5.200298,0.22489 0.78501,1.07801 2.47716,1.96002 3.760341,1.96002 3.68446,0 5.878157,3.07698 5.878157,8.24496 0,3.88159 0.72205,5.42767 4.20996,9.01442 4.41065,4.53562 5.7259,11.72718 2.70037,14.76524 -2.22457,2.23379 -1.42125,10.13751 1.56317,15.37966 1.5435,2.71118 2.80638,6.08053 2.80638,7.48742 0,1.40689 1.26898,4.43568 2.81997,6.73065 1.80704,2.67387 2.81997,5.74811 2.81997,8.55865 0,5.17059 0.58348,5.50046 9.93741,5.61797 7.06421,0.0888 7.16335,0.0459 13.25386,-5.73819 z"
     id="path5008"
     inkscape:connector-curvature="0" />
</svg>
