<?xml version="1.0" encoding="UTF-8" standalone="no"?>
<!-- Created with Inkscape (http://www.inkscape.org/) -->
<svg id="svg3509" xmlns:rdf="http://www.w3.org/1999/02/22-rdf-syntax-ns#" xmlns="http://www.w3.org/2000/svg" height="200" viewBox="0 0 200 200" width="200" version="1.1" xmlns:cc="http://creativecommons.org/ns#" xmlns:dc="http://purl.org/dc/elements/1.1/">
 <metadata id="metadata3515">
  <rdf:RDF>
   <cc:Work rdf:about="">
    <dc:format>image/svg+xml</dc:format>
    <dc:type rdf:resource="http://purl.org/dc/dcmitype/StillImage"/>
    <dc:title/>
   </cc:Work>
  </rdf:RDF>
 </metadata>
 <path id="path5053" fill="#fdcb03" d="m86.528 198.04c-60.036-8.39-99.414-70.69-80.938-128.04 28.579-88.71 152.1-92.979 186.5-6.445 27.61 69.425-31.59 144.84-105.56 134.48zm-41.821-59.81c1.2081-0.76876 0.73389-1.434-2.0557-2.8837l-3.6261-1.8844 0.68734-4.1666c0.49733-3.0149 0.05435-5.4055-1.6025-8.6484l-2.2898-4.4818 1.6017-1.6096c1.9407-1.9503 5.152-0.94815 5.152 1.6078 0 1.0166 2.2787 4.3952 5.0637 7.5081 5.1834 5.7937 6.4701 10.334 3.7134 13.105-1.0503 1.0554-0.30008 1.357 3.3758 1.357 5.3764 0 5.5174-0.39065 3.0795-8.5314-1.9964-6.6664-1.5572-7.4092 1.9549-3.3059 1.9573 2.2868 3.1427 2.8522 4.4218 2.1094 2.8179-1.6365 0.58317-5.4141-6.2863-10.626l-6.1953-4.7006-0.344-4.1523c-0.26725-3.2258 0.15812-4.4109 1.9065-5.3114 4.7982-2.4713 0.82383-11.845-5.0221-11.845-10.077 0-29.601 20.197-26.406 27.316l1.9887 4.432-2.4318 1.7117c-3.5536 2.5013-5.1422 5.917-3.6131 7.7685 0.68355 0.8277 1.0985 2.1946 0.92203 3.0375-0.22433 1.0717 1.2018 1.6398 4.7429 1.8892l5.0637 0.3566-2.4934-2.3436c-2.946-2.769-2.5436-4.0695 2.591-8.3756l3.8409-3.2211v5.6987c0 3.1343-0.51463 6.0184-1.1436 6.409-0.629 0.39065-0.8523 1.184-0.49623 1.763 0.82103 1.335 11.808 1.3498 13.9 0.0188zm62.007-0.78123c9.5673-0.26048 9.8825-0.32923 7.6093-1.6601-1.0755-0.62967-2.4836-2.1367-3.1293-3.349l-1.1738-2.2042 6.7864-7.3308c3.7325-4.032 6.7864-7.8826 6.7864-8.5569 0-0.67435 0.52697-0.89879 1.171-0.49877 0.66734 0.41448 0.81749 1.7808 0.34906 3.1765-0.45208 1.347-0.85246 6.003-0.88972 10.347l-0.0677 7.8975-3.3758 0.68873c-4.6416 0.94696-1.829 1.854 7.9453 2.5624 4.3699 0.31669 8.6594 0.13228 9.5322-0.40981 1.8654-1.1586 1.7057-1.3489-3.2652-3.891l-3.792-1.9392 0.7184-4.7068c1.7731-11.617 2.0124-16.403 0.91817-18.368-0.95141-1.7085-0.35378-3.0719 3.2342-7.3785 5.9978-7.199 5.2085-11.188-2.2136-11.188-1.244 0-3.6241-1.1776-5.2892-2.6169l-3.0274-2.6169 1.3423-2.5204c0.73824-1.3862 1.1862-4.1523 0.99544-6.1469-0.28648-2.9957 0.0795-3.6875 2.1033-3.9771 3.6906-0.52809 5.0393-2.9216 4.6516-8.2544l-0.35008-4.8143-3.2018-0.85441c-4.3566-1.1626-8.3663 0.58574-9.9907 4.3563-0.74224 1.7228-4.2806 6.5082-7.863 10.634-6.8937 7.9395-7.426 9.7035-4.9809 16.505 1.4283 3.9732 2.5564 7.9712 5.2982 18.778l1.1004 4.3368-2.9212 3.5789c-1.6067 1.9684-4.3756 5.8602-6.1532 8.6485l-3.232 5.0696 1.6249 1.8044c2.628 2.9182 1.9094 3.6587-2.919 3.0078-9.925-1.3378-11.762-5.1313-8.5372-17.626 0.99961-3.8726 1.2303-7.4622 0.65183-10.141-0.49251-2.2807-1.2118-7.4543-1.5985-11.497l-0.70303-7.3503 2.9004-5.6541 2.9004-5.6541 4.1837-0.56541 4.1837-0.56541 0.35293-5.6166c1.1723-18.656-22.685-5.6281-33.935 18.532l-3.3867 7.2728 3.1316 9.269 3.1316 9.269-1.6728 2.6879c-0.92002 1.4783-1.9847 5.2322-2.3659 8.342-0.44537 3.633-1.4933 6.3205-2.9315 7.5183l-2.2384 1.8642 1.7636 0.68011c0.97 0.37406 3.8743 0.70944 6.454 0.74528 2.5797 0.0358 6.7158 0.51165 9.1914 1.0574 2.4756 0.5457 7.5393 0.65474 11.253 0.2423 3.7134-0.41243 9.5366-0.8257 12.941-0.91837zm-26.659-4.0588c-3.8811-1.8848-3.9396-3.9362-0.31768-11.147 3.7425-7.4505 4.8236-8.5098 3.3247-3.2578-0.59219 2.0751-0.56063 4.6036 0.07855 6.2931 1.2726 3.3637 1.4193 9.4938 0.22457 9.3854-0.46417-0.0421-1.9537-0.61548-3.3101-1.2742zm47.156-33.197c-3.4215-5.3073 0.67299-7.5076 6.2332-3.3497 0.55987 0.41867-2.2072 7.3656-2.9283 7.3518-0.40362-0.008-1.8908-1.8086-3.3049-4.0021zm45.05 38.346c5.256-0.87306 5.3292-1.8091 0.28479-3.6422-4.6874-1.7033-4.762-1.955-6.1134-20.621-0.58453-8.0737-1.8002-16.095-2.8058-18.514-0.9759-2.3472-1.7744-7.2217-1.7744-10.832v-6.5647l2.9649-2.3437c4.7245-3.7346 7.891-2.4397 22.635 9.2564 0.92804 0.73619 1.4066 0.73059 1.4066-0.01645 0-0.62275-3.7978-4.0048-8.4395-7.5157s-8.4395-6.8029-8.4395-7.3156-2.0284-1.8514-4.5075-2.9748c-5.6944-2.5805-7.7-4.7885-5.2188-5.7453 1.3884-0.5354 1.7256-2.1653 1.5333-7.4106l-0.24651-6.7243-2.5318-0.64109c-4.1147-1.0419-8.0887 0.5654-10.257 4.1484l-2.029 3.3528-9.1888-6.764c-11.902-8.7612-11.996-6.7744-0.10938 2.3185 10.892 8.3321 10.764 8.0603 7.8622 16.716-2.859 8.5287-2.8687 12.044-0.0627 22.803 2.6536 10.175 2.8558 18.972 0.56264 24.487-0.92835 2.2328-1.6948 6.669-1.7033 9.8583-0.0221 8.3424-0.97281 11.187-3.5154 10.519-1.1526-0.30289-2.0956-0.11252-2.0956 0.42301 0 1.0666 2.7662 1.5972 16.316 3.1302 4.9512 0.56013 9.5085 1.0848 10.127 1.166 0.6189 0.0812 3.0242-0.16788 5.345-0.55339zm-13.784-3.5495c0-0.48559-1.5191-1.4591-3.3758-2.1634-1.8567-0.70427-3.3758-1.9811-3.3758-2.8374 0-2.279 2.9792-13.365 4.6488-17.298l1.4399-3.3925 0.78347 7.9157c0.43092 4.3536 1.1523 10.333 1.6031 13.287 0.56839 3.7251 0.42984 5.3714-0.45202 5.3714-0.69938 0-1.2716-0.3973-1.2716-0.8829zm4.501-65.27c-0.79527-0.96299-1.1928-2.0053-0.88333-2.3163 0.30945-0.31098 1.2133 0.22249 2.0086 1.1855 0.79527 0.96299 1.1928 2.0053 0.88332 2.3163-0.30944 0.31098-1.2133-0.22249-2.0086-1.1855z"/>
</svg>
