<?xml version="1.0" encoding="UTF-8" standalone="no"?>
<!-- Created with Inkscape (http://www.inkscape.org/) -->

<svg
   xmlns:dc="http://purl.org/dc/elements/1.1/"
   xmlns:cc="http://creativecommons.org/ns#"
   xmlns:rdf="http://www.w3.org/1999/02/22-rdf-syntax-ns#"
   xmlns:svg="http://www.w3.org/2000/svg"
   xmlns="http://www.w3.org/2000/svg"
   xmlns:sodipodi="http://sodipodi.sourceforge.net/DTD/sodipodi-0.dtd"
   xmlns:inkscape="http://www.inkscape.org/namespaces/inkscape"
   id="svg3509"
   version="1.1"
   inkscape:version="0.91 r13725"
   width="200"
   height="200"
   viewBox="0 0 200 200"
   sodipodi:docname="geography.svg">
  <metadata
     id="metadata3515">
    <rdf:RDF>
      <cc:Work
         rdf:about="">
        <dc:format>image/svg+xml</dc:format>
        <dc:type
           rdf:resource="http://purl.org/dc/dcmitype/StillImage" />
        <dc:title></dc:title>
      </cc:Work>
    </rdf:RDF>
  </metadata>
  <defs
     id="defs3513" />
  <sodipodi:namedview
     pagecolor="#ffffff"
     bordercolor="#666666"
     borderopacity="1"
     objecttolerance="10"
     gridtolerance="10"
     guidetolerance="10"
     inkscape:pageopacity="0"
     inkscape:pageshadow="2"
     inkscape:window-width="1280"
     inkscape:window-height="657"
     id="namedview3511"
     showgrid="false"
     fit-margin-left="1"
     fit-margin-top="1"
     fit-margin-right="1"
     fit-margin-bottom="1"
     inkscape:zoom="1.4142136"
     inkscape:cx="244.54537"
     inkscape:cy="64.276734"
     inkscape:window-x="-8"
     inkscape:window-y="-8"
     inkscape:window-maximized="1"
     inkscape:current-layer="svg3509" />
  <path
     style="fill:#000000"
     d=""
     id="path3926"
     inkscape:connector-curvature="0" />
  <path
     style="fill:#000000"
     d=""
     id="path3924"
     inkscape:connector-curvature="0" />
  <path
     style="fill:#002053"
     d="M 79.221107,196.97821 C -1.9505402,179.17298 -26.778355,75.580561 37.458617,22.726964 66.161984,-0.88989492 111.06011,-5.8847879 144.16793,10.855614 c 74.59415,37.717253 72.66484,143.955576 -3.25431,179.200556 -18.43792,8.55969 -42.115349,11.21635 -61.692513,6.92204 z M 118.85566,141.4526 c 17.4497,-4.51121 33.05896,-14.0149 48.7496,-29.68119 11.60302,-11.58499 11.81781,-12.589834 4.23059,-19.79138 C 128.47255,50.820917 73.474149,50.798135 30.934556,91.9216 c -10.189095,9.84991 -10.190541,9.82443 1.171539,20.75978 26.881004,25.87141 58.019356,36.1987 86.749565,28.77118 z m -29.804789,-7.39578 c -34.596608,-12.37179 -26.76977,-62.726302 9.83615,-63.281566 30.730249,-0.466137 45.998729,34.696906 24.252679,55.853526 -8.24285,8.01942 -23.275179,11.29501 -34.088829,7.42804 z m 17.609139,-21.03125 c 8.75597,-6.90468 3.9189,-21.496674 -7.125889,-21.496674 -11.3357,0 -15.78011,16.629764 -5.88337,22.013974 4.34351,2.36303 9.622879,2.1531 13.009259,-0.5173 z M 59.555593,124.20594 C 52.23752,119.74131 42.575421,112.2352 36.38225,106.20349 c -5.598586,-5.45264 -6.357469,-3.87964 7.414804,-15.369328 4.887841,-4.077758 22.662657,-15.157975 24.316316,-15.157975 0.525979,0 -0.543045,2.074995 -2.375608,4.6111 -8.12086,11.238574 -9.256345,28.786133 -2.653535,41.007403 4.003707,7.41056 3.936794,7.46577 -3.528634,2.91125 z m 77.603267,-3.3555 c 6.59723,-12.81987 4.78601,-30.35171 -4.37919,-42.38883 -3.80478,-4.997 -3.80478,-4.997 2.49033,-2.20604 7.98968,3.542265 20.01008,11.536876 27.50884,18.295781 5.81867,5.244574 5.81867,5.244574 0.38094,10.809259 -5.72121,5.8548 -18.36552,15.81111 -25.43617,20.02879 -4.18528,2.49655 -4.18528,2.49655 -0.56475,-4.53896 z"
     id="path5136"
     inkscape:connector-curvature="0" />
</svg>
