<?xml version="1.0" encoding="UTF-8" standalone="no"?>
<!-- Created with Inkscape (http://www.inkscape.org/) -->

<svg
   xmlns:dc="http://purl.org/dc/elements/1.1/"
   xmlns:cc="http://creativecommons.org/ns#"
   xmlns:rdf="http://www.w3.org/1999/02/22-rdf-syntax-ns#"
   xmlns:svg="http://www.w3.org/2000/svg"
   xmlns="http://www.w3.org/2000/svg"
   xmlns:sodipodi="http://sodipodi.sourceforge.net/DTD/sodipodi-0.dtd"
   xmlns:inkscape="http://www.inkscape.org/namespaces/inkscape"
   id="svg3509"
   version="1.1"
   inkscape:version="0.91 r13725"
   width="200"
   height="200"
   viewBox="0 0 200 200"
   sodipodi:docname="physics.svg">
  <metadata
     id="metadata3515">
    <rdf:RDF>
      <cc:Work
         rdf:about="">
        <dc:format>image/svg+xml</dc:format>
        <dc:type
           rdf:resource="http://purl.org/dc/dcmitype/StillImage" />
        <dc:title></dc:title>
      </cc:Work>
    </rdf:RDF>
  </metadata>
  <defs
     id="defs3513" />
  <sodipodi:namedview
     pagecolor="#ffffff"
     bordercolor="#666666"
     borderopacity="1"
     objecttolerance="10"
     gridtolerance="10"
     guidetolerance="10"
     inkscape:pageopacity="0"
     inkscape:pageshadow="2"
     inkscape:window-width="1280"
     inkscape:window-height="657"
     id="namedview3511"
     showgrid="false"
     fit-margin-left="1"
     fit-margin-top="1"
     fit-margin-right="1"
     fit-margin-bottom="1"
     inkscape:zoom="1.9140037"
     inkscape:cx="137.31712"
     inkscape:cy="75.36337"
     inkscape:window-x="-8"
     inkscape:window-y="-8"
     inkscape:window-maximized="1"
     inkscape:current-layer="svg3509" />
  <path
     style="fill:#761f1f"
     d="M 80.142646,196.93268 C 3.8478316,180.9628 -25.487366,85.884233 28.957959,31.03758 91.969667,-32.438588 199.34392,11.320541 198.99917,100.33591 198.75884,162.39295 140.67061,209.60226 80.142646,196.93268 Z m 30.226304,-21.4399 c 3.85295,-3.23948 8.40592,-12.14211 11.01534,-21.53872 1.03443,-3.72505 2.07454,-7.38259 2.31135,-8.12787 0.30324,-0.95436 2.53518,-0.49239 7.54809,1.56233 32.44161,13.29736 44.25073,2.97228 27.53419,-24.07394 -3.04842,-4.93213 -1.01544,-7.41653 4.377,-5.34889 1.10578,0.42399 2.84373,-0.34794 4.44972,-1.97641 1.4494,-1.46968 4.70227,-3.89322 7.2286,-5.38565 14.42174,-8.51966 7.78388,-21.823082 -14.1605,-28.380117 -5.70704,-1.705271 -5.5588,-0.890919 -1.48351,-8.149382 12.65861,-22.546112 -0.0261,-32.663438 -26.82563,-21.396144 -5.57968,2.345844 -8.38598,3.040419 -8.65464,2.14205 -0.21866,-0.731205 -0.98414,-3.844139 -1.70107,-6.917632 C 112.44245,6.8949219 92.496297,4.8827516 82.29076,43.895752 c -1.380464,5.277155 -2.64649,9.779137 -2.81338,10.00439 -0.166889,0.225264 -4.524799,-1.381441 -9.684239,-3.570449 -11.430859,-4.849801 -20.745259,-6.855548 -26.535508,-5.714137 -2.370212,0.467234 -5.072035,0.877396 -6.004033,0.911464 -5.421043,0.198161 -1.981112,18.289916 5.616367,29.538359 4.249244,6.291214 4.48613,5.551419 -2.509707,7.837651 -37.4922125,12.252433 -19.997752,34.81392 31.495794,40.61812 6.924937,0.78056 6.924937,0.78056 7.566017,5.44751 0.3526,2.56681 0.987048,6.82623 1.409904,9.46535 0.768802,4.79842 0.768802,4.79842 -8.608126,9.2025 -5.157304,2.42224 -10.07073,4.13805 -10.918713,3.8129 -0.847982,-0.32514 -2.466067,0.24464 -3.59575,1.26617 -2.776766,2.51095 -15.552256,3.56004 -19.236879,1.57967 -6.499472,-3.49328 -5.241614,-13.52623 3.363744,-26.82989 2.51505,-3.88819 4.361683,-7.28041 4.103638,-7.53826 -0.827365,-0.82671 -9.659363,13.54551 -11.46309,18.6538 -4.608826,13.05247 0.367185,19.19643 14.353549,17.72258 3.884771,-0.40937 8.334119,-0.7669 9.887449,-0.7945 1.55333,-0.0276 3.58678,-0.71082 4.518778,-1.51825 0.931998,-0.80744 5.556527,-3.23586 10.27673,-5.39649 8.582176,-3.92843 8.582176,-3.92843 11.155655,4.1021 7.124328,22.23146 16.49058,30.53953 25.69999,22.79644 z m -12.926726,-1.1288 c -4.522179,-3.80216 -15.642327,-28.61122 -13.696078,-30.55594 0.757053,-0.75646 17.962304,-11.86564 18.376804,-11.86564 0.22379,0 4.97272,2.69591 10.5532,5.9909 10.14632,5.99091 10.14632,5.99091 7.45519,15.30508 -5.96107,20.63161 -14.17759,28.28193 -22.689116,21.1256 z m 47.376196,-23.68144 c -11.81376,-2.97288 -20.80844,-7.50207 -20.16449,-10.15369 0.31762,-1.30792 0.92603,-5.53114 1.35199,-9.38493 0.7745,-7.00691 0.7745,-7.00691 6.00007,-7.69352 2.87407,-0.37764 8.9821,-1.41862 13.57339,-2.3133 9.98457,-1.94565 9.96124,-1.95905 15.36048,8.82489 8.64252,17.26172 2.33736,25.3656 -16.12144,20.72055 z m -61.780581,-9.9518 c -0.572722,-1.68525 -2.855846,-14.36318 -2.855846,-15.85816 0,-0.55615 1.505917,-0.68069 3.346461,-0.27676 4.660397,1.02279 28.713386,1.04341 36.056356,0.0309 6.36404,-0.87752 7.09691,1.97841 3.73294,14.54684 -0.70973,2.65169 -12.8232,-2.32215 -19.28978,-7.92049 -0.24334,-0.21068 0.77337,-1.39477 2.25939,-2.63133 1.48601,-1.23654 2.12864,-2.26516 1.42805,-2.28582 -0.70058,-0.0207 -1.90664,0.72439 -2.68013,1.65565 -0.77349,0.93126 -2.04439,1.6932 -2.82424,1.6932 -0.77984,0 -2.05074,-0.76194 -2.824239,-1.6932 -0.773479,-0.93126 -1.979541,-1.67631 -2.680132,-1.65565 -0.700592,0.0207 -0.01864,1.08111 1.515473,2.35656 2.312728,1.92281 2.505738,2.49067 1.129695,3.32377 -0.912771,0.55261 -4.845859,3.06594 -8.74021,5.58517 -4.889611,3.16306 -7.233242,4.13138 -7.573788,3.1293 z m 1.456289,-17.50775 c -3.566107,-0.37565 -4.267478,-0.92457 -4.908704,-3.84177 -1.102005,-5.01343 -0.09354,-5.08708 5.618288,-0.41035 5.006851,4.09951 6.037494,5.26967 4.298262,4.88015 -0.465999,-0.10441 -2.719525,-0.38697 -5.007846,-0.62803 z m 1.901186,-4.75851 c -7.536735,-6.11653 -8.224132,-7.98984 -8.388965,-22.861514 -0.12081,-10.899721 10.932269,-20.100729 24.146821,-20.100729 22.75466,0 33.62002,27.933903 16.35526,42.047923 -11.3474,9.27655 -21.454663,9.56432 -32.113116,0.91432 z m 23.951166,-6.79484 c 9.49001,-5.78183 9.45934,-21.463075 -0.0541,-27.691639 -14.222894,-9.311846 -32.076768,8.527936 -22.757567,22.739609 4.538875,6.92173 15.627727,9.32893 22.811727,4.95203 z m 3.7887,11.24233 c 0.17525,-1.55139 12.3643,-10.08913 12.3643,-8.66048 0,6.88546 -1.21965,8.44837 -6.89991,8.84189 -3.04048,0.21065 -5.49945,0.12901 -5.46439,-0.18141 z m -52.501608,-2.35136 c -6.784313,-1.19299 -12.546297,-2.38008 -12.804432,-2.63801 -0.258124,-0.25792 3.058399,-4.16543 7.370048,-8.68334 7.839357,-8.2144 7.839357,-8.2144 14.781387,-2.18118 6.513649,5.66094 6.942029,6.33624 6.942029,10.94357 0,5.76495 1.026215,5.60374 -16.289032,2.55896 z m 65.995598,-3.86718 c 0,-5.65206 0.1926,-6.00716 5.8378,-10.76351 5.83779,-4.91861 5.83779,-4.91861 10.81174,0.6699 10.12454,11.3755 10.09676,11.26998 3.35848,12.75313 -18.04087,3.97095 -20.00802,3.70947 -20.00802,-2.65952 z M 38.852287,114.59674 C 16.375692,106.24706 16.086581,93.759394 38.169432,85.102322 c 9.514502,-3.729937 8.300758,-4.166524 17.333073,6.23466 7.379199,8.497517 7.379199,8.497517 -0.633645,17.221128 -4.407075,4.79799 -8.267037,8.69406 -8.577704,8.65792 -0.310666,-0.0361 -3.658154,-1.21481 -7.438869,-2.61929 z M 149.0585,110.27192 c -9.74568,-11.202524 -9.50121,-10.79769 -7.77532,-12.875613 0.82721,-0.995932 2.66872,-2.253272 4.09225,-2.79407 1.42354,-0.540798 2.6089,-1.884774 2.63415,-2.986621 0.12282,-5.35933 6.31372,-9.822346 11.49277,-8.285131 18.04654,5.35644 26.09417,14.205127 19.98133,21.970215 -2.47608,3.14535 -13.19688,9.20494 -14.31282,8.08988 -0.35379,-0.35352 -1.44707,0.0807 -2.42948,0.96496 -4.63659,4.17325 -7.15318,3.42217 -13.68288,-4.08362 z m -78.243154,-5.18165 c -5.327798,-5.404852 -5.327798,-5.404852 -0.479624,-10.159224 6.362892,-6.239775 6.240286,-6.339324 6.659448,5.407454 0.42376,11.87615 0.662216,11.69279 -6.179824,4.75177 z m 56.813824,-5.318759 c 0,-10.064881 0,-10.064881 5.08363,-5.079624 2.79599,2.741907 5.08362,5.027733 5.08362,5.079624 0,0.05192 -2.28763,2.337719 -5.08362,5.079609 -5.08363,4.98527 -5.08363,4.98527 -5.08363,-5.079609 z M 56.558499,90.577829 c -6.026876,-6.572071 -7.977632,-9.431577 -6.434244,-9.431577 0.244206,0 4.184016,-0.724376 8.755133,-1.609719 18.494919,-3.582166 17.913522,-3.66616 17.913522,2.588063 0,5.284558 -0.260903,5.742965 -6.111072,10.73697 -7.478781,6.384284 -5.947311,6.631921 -14.123339,-2.283737 z m 76.560361,2.659685 c -6.78137,-6.149638 -9.16827,-17.277695 -3.46899,-16.172924 1.68461,0.326552 6.94287,1.184577 11.68503,1.906729 11.40325,1.736506 12.03472,2.196132 8.87825,6.462126 -1.39408,1.884107 -3.48725,3.674547 -4.65148,3.978759 -1.16423,0.304212 -2.11678,1.53787 -2.11678,2.741456 0,1.891039 -3.22491,6.007298 -4.60773,5.881278 -0.26174,-0.02382 -2.83498,-2.182698 -5.7183,-4.797424 z M 119.43103,81.415279 c -7.57941,-5.995863 -7.5802,-6.06963 -0.0554,-5.179129 5.71992,0.67691 5.7363,0.690602 6.35673,5.312588 0.78696,5.862561 1.29175,5.873251 -6.30138,-0.133459 z m -41.492994,2.270779 c 0.04315,-5.531608 1.195624,-6.774951 6.99168,-7.543214 7.467507,-0.989825 7.477188,-0.818067 0.268291,4.755353 -6.978146,5.395035 -7.281243,5.511415 -7.259971,2.787861 z M 44.527218,75.392381 C 27.203453,47.97142 38.133903,38.364968 71.000503,52.12581 c 8.328774,3.487155 8.328774,3.487155 7.625438,10.210971 -0.38683,3.698094 -0.703337,8.078257 -0.703337,9.73368 0,2.95524 -0.220369,3.044596 -12.144216,4.924132 -6.679319,1.052846 -13.503138,2.215457 -15.164037,2.583571 -2.629274,0.582744 -3.416536,0.04143 -6.087133,-4.185783 z m 103.436452,3.433074 c -2.17466,-0.528494 -7.80978,-1.538592 -12.52248,-2.244658 -8.56855,-1.283754 -8.56855,-1.283754 -9.90224,-9.855546 -1.53846,-9.887998 -1.97472,-9.191199 8.30354,-13.263074 17.45176,-6.913771 29.14883,-4.857499 29.0113,5.1 -0.0761,5.512837 -7.2744,21.537505 -9.58578,21.339727 -0.74272,-0.06355 -3.12968,-0.547954 -5.30434,-1.076449 z M 79.608933,66.633773 c 0.989037,-10.67316 0.233147,-10.20789 8.803541,-5.41883 15.100436,8.437972 14.584826,12.173181 -1.856179,13.446719 -7.746892,0.600094 -7.746892,0.600094 -6.947362,-8.027889 z m 36.113267,8.044483 c -11.93621,-0.851897 -13.55422,-4.835228 -4.185,-10.302845 11.577,-6.755988 11.23044,-6.7249 12.10025,-1.085468 0.41355,2.681291 1.02908,6.525948 1.36785,8.543684 0.51881,3.090143 0.28437,3.635694 -1.48676,3.459804 -1.15648,-0.114845 -4.66483,-0.391672 -7.79634,-0.615175 z M 99.319776,72.205737 c 2.505214,-1.923977 2.995664,-1.961408 5.366054,-0.409485 3.60295,2.358882 3.36329,2.580715 -2.75721,2.552088 -5.366055,-0.02506 -5.366055,-0.02506 -2.608844,-2.142603 z M 92.824631,62.431725 C 87.662108,59.145339 82.85441,56.262026 82.140861,56.024357 81.217054,55.716668 81.537378,52.783812 83.253362,45.838343 92.32011,9.1405626 107.67457,7.1988409 118.62759,41.364931 c 4.78582,14.928566 4.75079,15.101623 -4.03412,19.926613 -4.06299,2.23153 -8.51116,4.745397 -9.88483,5.586378 -2.2815,1.396758 -3.30973,1.012062 -11.884009,-4.446197 z"
     id="path4116"
     inkscape:connector-curvature="0" />
  <path
     style="fill:#000000"
     d=""
     id="path3926"
     inkscape:connector-curvature="0" />
  <path
     style="fill:#000000"
     d=""
     id="path3924"
     inkscape:connector-curvature="0" />
</svg>
