<?xml version="1.0" encoding="UTF-8" standalone="no"?>
<svg
   xmlns:dc="http://purl.org/dc/elements/1.1/"
   xmlns:cc="http://creativecommons.org/ns#"
   xmlns:rdf="http://www.w3.org/1999/02/22-rdf-syntax-ns#"
   xmlns:svg="http://www.w3.org/2000/svg"
   xmlns="http://www.w3.org/2000/svg"
   xmlns:sodipodi="http://sodipodi.sourceforge.net/DTD/sodipodi-0.dtd"
   xmlns:inkscape="http://www.inkscape.org/namespaces/inkscape"
   width="700"
   height="480"
   id="svg4136"
   version="1.1"
   inkscape:version="0.91 r13725"
   sodipodi:docname="redbook.svg">
  <metadata
     id="metadata4164">
    <rdf:RDF>
      <cc:Work
         rdf:about="">
        <dc:format>image/svg+xml</dc:format>
        <dc:type
           rdf:resource="http://purl.org/dc/dcmitype/StillImage" />
        <dc:title>blue book</dc:title>
      </cc:Work>
    </rdf:RDF>
  </metadata>
  <defs
     id="defs4162" />
  <sodipodi:namedview
     pagecolor="#ffffff"
     bordercolor="#666666"
     borderopacity="1"
     objecttolerance="10"
     gridtolerance="10"
     guidetolerance="10"
     inkscape:pageopacity="0"
     inkscape:pageshadow="2"
     inkscape:window-width="1920"
     inkscape:window-height="1017"
     id="namedview4160"
     showgrid="false"
     inkscape:zoom="1.7666667"
     inkscape:cx="291.62484"
     inkscape:cy="260.21255"
     inkscape:window-x="-8"
     inkscape:window-y="-8"
     inkscape:window-maximized="1"
     inkscape:current-layer="g4140" />
  <title
     id="title4138">blue book</title>
  <g
     id="g4140"
     transform="matrix(0.68746479,0,0,0.87099206,41.709943,38.53855)">
    <title
       id="title4142">Camada 1</title>
    <path
       d="m 686.53198,221.804 c -0.24096,-0.674 -0.58301,-1.332 -1.00098,-1.937 -0.41803,-0.60501 -0.91198,-1.15901 -1.45703,-1.624 -0.54394,-0.465 -1.13995,-0.84301 -1.76098,-1.096 L 396.961,100.799 c -0.41699,-0.173 -0.84,-0.395 -1.271,-0.671 -0.431,-0.276002 -0.86999,-0.606996 -1.32001,-1.000001 -0.44998,-0.392998 -0.91198,-0.846001 -1.388,-1.366997 -0.47598,-0.521004 -0.96499,-1.110001 -1.471,-1.772003 -0.75299,-0.985001 -1.521,-2.130997 -2.29099,-3.419998 -0.76999,-1.289001 -1.543,-2.721001 -2.30301,-4.277 -0.76098,-1.556 -1.509,-3.236 -2.22998,-5.022003 -0.72201,-1.786995 -1.41702,-3.677994 -2.07101,-5.656998 -0.659,-1.982002 -1.28101,-4.049988 -1.858,-6.185997 -0.57599,-2.137001 -1.107,-4.344002 -1.58499,-6.602005 -0.47901,-2.259998 -0.90302,-4.571999 -1.26801,-6.918999 -0.36401,-2.349998 -0.66699,-4.734997 -0.89999,-7.137997 -0.31601,-3.208 -0.49301,-6.292 -0.54102,-9.219002 -0.049,-2.932999 0.03,-5.709999 0.22601,-8.300999 0.19501,-2.595001 0.50602,-5.003 0.92099,-7.193001 0.41501,-2.193001 0.935,-4.168001 1.54401,-5.892 0.30301,-0.862 0.629,-1.66 0.97299,-2.392 0.344,-0.732 0.70603,-1.398001 1.08301,-1.996 0.37601,-0.599 0.767,-1.129 1.16699,-1.589 0.40003,-0.46 0.81101,-0.851 1.22602,-1.17 0.075,-0.057 0.14999,-0.112 0.22598,-0.165 0.076,-0.053 0.15002,-0.104 0.225,-0.151 0.075,-0.049 0.15,-0.095 0.22501,-0.139 0.075,-0.044 0.14899,-0.086 0.22501,-0.125999 C 261.04901,78.40001 137.605,144.36099 14.151001,210.323 c -0.064,0.034 -0.127,0.07 -0.191,0.10901 -0.064,0.039 -0.127,0.08 -0.19,0.12298 -0.063,0.043 -0.126,0.089 -0.189,0.13601 -0.062,0.048 -0.125,0.098 -0.188001,0.15 -0.344,0.292 -0.674999,0.66201 -0.988,1.10601 -0.313,0.444 -0.609,0.96299 -0.884,1.55499 -0.274,0.592 -0.528,1.257 -0.757,1.995 -0.229,0.737 -0.433,1.54501 -0.608,2.425 -0.355,1.756 -0.597,3.78702 -0.716001,6.06102 -0.12,2.26999 -0.117999,4.78 0.012,7.5 0.13,2.71498 0.389,5.63898 0.783,8.74199 0.394,3.09599 0.924001,6.36899 1.597,9.789 0.501,2.56099 1.064,5.10998 1.678,7.62799 0.613999,2.51599 1.278999,5.00101 1.988,7.43701 0.708001,2.43298 1.458001,4.81699 2.242,7.134 0.783001,2.314 1.601,4.56199 2.441999,6.72498 0.836,2.15701 1.700001,4.228 2.575001,6.18903 0.875,1.96197 1.761,3.81399 2.643999,5.53897 0.883001,1.72302 1.763,3.31702 2.623001,4.76101 0.861,1.44401 1.702999,2.73701 2.511,3.85901 0.544001,0.754 1.063,1.43 1.562,2.03098 0.499001,0.60303 0.977001,1.13202 1.437,1.59601 0.459999,0.46402 0.903999,0.86099 1.333,1.20102 0.429001,0.33999 0.842999,0.61999 1.246998,0.84997 L 315.82996,461.724 c 0.61703,0.34601 1.22302,0.82001 1.79104,1.38101 0.56696,0.56199 1.09696,1.21 1.56,1.904 0.46301,0.69299 0.85898,1.43399 1.16299,2.17898 0.30301,0.74402 0.513,1.49301 0.60099,2.20502 0.044,0.358 0.056,0.69 0.038,0.99298 -0.019,0.30402 -0.067,0.57901 -0.14303,0.82401 -0.076,0.24499 -0.17997,0.46002 -0.30796,0.64401 -0.12802,0.18298 -0.28201,0.33398 -0.457,0.45199 121.868,-81.85699 243.73501,-163.716 365.60299,-245.57499 0.20001,-0.13501 0.38104,-0.299 0.53802,-0.48999 0.15698,-0.19101 0.29199,-0.41002 0.40003,-0.65401 0.10797,-0.24399 0.19,-0.513 0.24395,-0.806 0.053,-0.29199 0.077,-0.608 0.069,-0.94499 -0.014,-0.66899 -0.15503,-1.35901 -0.39704,-2.032 l 0,-2e-5 z"
       id="path3"
       inkscape:connector-curvature="0"
       style="fill:#d40000;stroke:#2b0000;stroke-width:2" />
    <g
       id="g5">
      <g
         id="g7">
        <g
           id="g9">
          <g
             id="g11">
            <path
               d="m 297.15601,394.95599 c 0.518,4.06 1.19299,8.10901 2.00799,12.10901 0.814,3.99399 1.76801,7.94 2.84601,11.80301 1.077,3.85599 2.27798,7.63098 3.58697,11.284 1.30802,3.64999 2.72501,7.18201 4.23603,10.55798 0.44299,0.98602 0.89398,1.96002 1.35299,2.92102 0.45899,0.95999 0.92701,1.90598 1.40299,2.83899 0.47702,0.93302 0.961,1.85199 1.45502,2.75501 0.49398,0.90399 0.996,1.793 1.50799,2.66699 L 42.066011,299.763 c -0.406998,-0.229 -0.824001,-0.51001 -1.256001,-0.85001 -0.431999,-0.33999 -0.876999,-0.738 -1.34,-1.203 -0.462997,-0.46499 -0.942997,-0.99499 -1.444,-1.599 -0.500999,-0.604 -1.021999,-1.28 -1.567997,-2.03698 -0.812,-1.124 -1.656002,-2.42099 -2.52,-3.86902 -0.864002,-1.448 -1.745003,-3.047 -2.630001,-4.776 -0.885,-1.72898 -1.771999,-3.58799 -2.648001,-5.556 -0.875999,-1.969 -1.739,-4.047 -2.576,-6.21198 -0.841,-2.16901 -1.657,-4.42502 -2.438999,-6.74802 -0.782999,-2.32498 -1.531,-4.71899 -2.236,-7.16098 -0.705999,-2.444 -1.368,-4.93801 -1.979,-7.46402 -0.610001,-2.528 -1.169001,-5.08799 -1.664999,-7.65899 -0.667002,-3.43399 -1.189001,-6.721 -1.575001,-9.83 -0.387,-3.11499 -0.637,-6.05201 -0.758,-8.78 -0.122,-2.73301 -0.113999,-5.25499 0.016,-7.536 0.129,-2.285 0.379999,-4.326 0.745999,-6.091 0.18,-0.884 0.389,-1.69699 0.623001,-2.43801 0.233999,-0.74198 0.493,-1.41099 0.771999,-2.00599 0.280001,-0.596 0.580999,-1.118 0.898001,-1.565 0.317999,-0.447 0.653,-0.819 1.000999,-1.114 0.354,-0.295 0.713999,-0.51799 1.08,-0.67099 0.365999,-0.153 0.737999,-0.23902 1.117001,-0.261 0.379999,-0.022 0.766998,0.02 1.160999,0.11999 0.395,0.10001 0.798,0.259 1.211,0.472 L 302.89499,349.716 c -0.67099,0.80701 -1.29099,1.71601 -1.85898,2.719 -0.56702,1.00201 -1.08401,2.1 -1.55301,3.28399 -0.46798,1.18302 -0.88699,2.45301 -1.26001,3.805 -0.37198,1.35 -0.69699,2.78 -0.97799,4.28402 -0.383,2.081 -0.67701,4.30899 -0.878,6.66999 -0.20101,2.35699 -0.30899,4.849 -0.32101,7.462 -0.012,2.60901 0.072,5.34101 0.25601,8.18299 0.18399,2.83603 0.46701,5.785 0.85401,8.833 z"
               id="path13"
               inkscape:connector-curvature="0"
               style="fill:#3f973e" />
          </g>
        </g>
      </g>
    </g>
    <g
       id="g15">
      <g
         id="g17">
        <g
           id="g19">
          <g
             id="g21">
            <path
               d="m 298.15601,395.95599 c 0.518,4.06 1.19299,8.10901 2.00799,12.10901 0.814,3.99399 1.76801,7.94 2.84601,11.80301 1.077,3.85599 2.27798,7.63098 3.58697,11.284 1.30802,3.64999 2.72501,7.18201 4.23603,10.55798 0.44299,0.98602 0.89398,1.96002 1.35299,2.92102 0.45899,0.95999 0.92701,1.90598 1.40299,2.83899 0.47702,0.93302 0.961,1.85199 1.45502,2.75501 0.49398,0.90399 0.996,1.793 1.50799,2.66699 L 43.066011,300.763 c -0.406998,-0.229 -0.824001,-0.51001 -1.256001,-0.85001 -0.431999,-0.33999 -0.876999,-0.738 -1.34,-1.203 -0.462997,-0.46499 -0.942997,-0.99499 -1.444,-1.599 -0.500999,-0.604 -1.021999,-1.28 -1.567997,-2.03698 -0.812,-1.124 -1.656002,-2.42099 -2.52,-3.86902 -0.864002,-1.448 -1.745003,-3.047 -2.630001,-4.776 -0.885,-1.72898 -1.771999,-3.58799 -2.648001,-5.556 -0.875999,-1.969 -1.739,-4.047 -2.576,-6.21198 -0.841,-2.16901 -1.657,-4.42502 -2.438999,-6.74802 -0.782999,-2.32498 -1.531,-4.71899 -2.236,-7.16098 -0.705999,-2.444 -1.368,-4.93801 -1.979,-7.46402 -0.610001,-2.528 -1.169001,-5.08799 -1.664999,-7.65899 -0.667002,-3.43399 -1.189001,-6.721 -1.575001,-9.83 -0.387001,-3.11499 -0.637001,-6.05201 -0.757999,-8.78 -0.122002,-2.73301 -0.114,-5.25499 0.016,-7.536 0.129002,-2.285 0.380001,-4.326 0.746,-6.091 0.18,-0.884 0.389,-1.69699 0.623001,-2.43801 0.233999,-0.74198 0.493,-1.41099 0.771999,-2.00599 0.280001,-0.596 0.580999,-1.118 0.898001,-1.565 0.317999,-0.447 0.653,-0.819 1.000999,-1.114 0.354,-0.295 0.713999,-0.51799 1.08,-0.67099 0.365999,-0.153 0.737999,-0.23902 1.117001,-0.261 0.379999,-0.022 0.766998,0.02 1.160999,0.11999 0.395,0.10001 0.798,0.259 1.211,0.472 L 303.89499,350.716 c -0.67099,0.80701 -1.29099,1.71601 -1.85898,2.719 -0.56702,1.00201 -1.08401,2.1 -1.55301,3.28399 -0.46798,1.18302 -0.88699,2.45301 -1.26001,3.805 -0.37198,1.35 -0.69699,2.78 -0.97799,4.28402 -0.383,2.081 -0.67701,4.30899 -0.878,6.66999 -0.20101,2.35699 -0.30899,4.849 -0.32101,7.462 -0.012,2.60901 0.072,5.34101 0.25601,8.18299 0.18399,2.83603 0.46701,5.785 0.85401,8.833 z"
               id="path23"
               inkscape:connector-curvature="0"
               style="fill:#ffffff;stroke:#550000" />
          </g>
          <path
             d="m 379.59601,16.184 c -0.35202,-0.130999 -0.69901,-0.229 -1.04602,-0.289 -0.34699,-0.06 -0.69098,-0.084 -1.03498,-0.068 -0.345,0.016 -0.68802,0.071 -1.03201,0.169001 -0.34299,0.098 -0.68799,0.237 -1.03201,0.421999 -118.06998,63.110999 -236.12899,126.21899 -354.198,189.33 0.297998,-0.159 0.599998,-0.27099 0.906,-0.338 0.306999,-0.068 0.617998,-0.091 0.934,-0.072 0.316,0.019 0.637999,0.079 0.964998,0.17801 0.327002,0.1 0.660002,0.23799 0.999001,0.41299 L 303.89496,350.716 664.25897,123.791 379.59598,16.184001 l 3e-5,0 z"
             id="path25"
             inkscape:connector-curvature="0"
             style="fill:#3f973e" />
          <path
             d="m 665.58899,217.43401 c -0.43097,-0.80701 -0.85101,-1.62801 -1.25897,-2.46401 -0.409,-0.836 -0.80805,-1.68699 -1.19501,-2.55099 -0.388,-0.86402 -0.76599,-1.74301 -1.133,-2.63501 -1.25201,-3.051 -2.388,-6.262 -3.39599,-9.59999 -1.008,-3.34002 -1.88703,-6.808 -2.625,-10.36802 -0.73804,-3.56498 -1.336,-7.22499 -1.77802,-10.94499 -0.44403,-3.726 -0.73199,-7.51401 -0.854,-11.33 -0.088,-2.864 -0.076,-5.645 0.03,-8.33 0.10498,-2.689 0.30694,-5.284 0.59698,-7.773 0.29102,-2.49299 0.67096,-4.87899 1.13501,-7.14801 0.46497,-2.27299 1.01496,-4.42698 1.64398,-6.45299 0.45801,-1.464 0.956,-2.862 1.49598,-4.18901 0.539,-1.32899 1.11999,-2.58499 1.74304,-3.76399 0.62396,-1.17999 1.28998,-2.282 2,-3.299 0.70996,-1.019 1.46496,-1.952 2.26398,-2.795 L 303.89401,350.71499 c -0.67102,0.80701 -1.29101,1.71601 -1.85901,2.719 -0.56701,1.00201 -1.08401,2.1 -1.55301,3.284 -0.46798,1.18301 -0.88699,2.453 -1.26001,3.80502 -0.37197,1.34998 -0.69699,2.78 -0.97799,4.284 -0.383,2.08099 -0.677,4.30899 -0.87799,6.66998 -0.20099,2.35702 -0.30899,4.849 -0.32099,7.462 -0.012,2.60901 0.072,5.34101 0.25598,8.18302 0.18399,2.83798 0.46701,5.78598 0.85401,8.83398 0.518,4.06 1.19299,8.10901 2.00799,12.10901 0.814,3.99399 1.76801,7.94 2.84601,11.80301 1.077,3.85599 2.27799,7.63098 3.58701,11.284 1.30798,3.64999 2.725,7.182 4.23599,10.55798 0.44299,0.98602 0.89401,1.96002 1.353,2.92102 0.45901,0.95999 0.927,1.90598 1.40301,2.83899 0.47699,0.93301 0.961,1.85199 1.45499,2.75501 0.49399,0.90399 0.996,1.79299 1.50799,2.66699 L 666.91302,219.80798 c -0.45202,-0.776 -0.893,-1.56798 -1.32403,-2.37398 z"
             id="path27"
             inkscape:connector-curvature="0"
             style="fill:#e2e3e4" />
        </g>
      </g>
    </g>
    <g
       id="g31">
      <path
         d="m 15.937,200.397 285.762,148.46399 c 0.63199,0.32901 1.254,0.79501 1.83701,1.357 0.58298,0.56201 1.12698,1.221 1.604,1.93301 0.47699,0.71201 0.88599,1.47699 1.19898,2.254 0.31302,0.776 0.53101,1.56299 0.625,2.319 0.094,0.75699 0.055,1.409 -0.096,1.94199 -0.151,0.53302 -0.41302,0.94601 -0.76602,1.22403 -0.353,0.27697 -0.79599,0.41897 -1.30899,0.40799 -0.513,-0.01 -1.095,-0.172 -1.72601,-0.503 L 207.11932,309.5649 17.917991,210.515 c -0.409,-0.213 -0.809999,-0.37199 -1.201,-0.47299 -0.391001,-0.10101 -0.775,-0.14401 -1.150999,-0.123 -0.375,0.021 -0.744,0.10499 -1.105,0.25699 -0.362,0.152 -0.717,0.37201 -1.067,0.66501 -0.344,0.29199 -0.674999,0.662 -0.988,1.106 -0.313,0.444 -0.608999,0.963 -0.884,1.55499 -0.274,0.592 -0.528,1.25701 -0.757,1.995 -0.229,0.737 -0.433,1.54501 -0.608,2.425 -0.355,1.756 -0.597,3.787 -0.716,6.06102 -0.120001,2.26999 -0.118,4.77998 0.011999,7.5 0.13,2.71498 0.389,5.63898 0.783,8.74199 0.394,3.09599 0.924001,6.36899 1.597,9.789 0.501,2.56099 1.064,5.10998 1.678,7.62799 0.614,2.51599 1.278999,5.00101 1.988,7.43701 0.707999,2.43299 1.457999,4.81699 2.242,7.13401 0.783001,2.31399 1.601,4.56198 2.441999,6.72497 0.836,2.15701 1.700001,4.228 2.575001,6.18903 0.875,1.96197 1.761,3.81399 2.644001,5.53897 0.882999,1.72302 1.762999,3.31702 2.622999,4.76102 0.861,1.444 1.702999,2.737 2.511,3.859 0.544001,0.754 1.063,1.43 1.562002,2.03098 0.498997,0.60303 0.976997,1.13202 1.436996,1.59601 0.460003,0.46402 0.904003,0.86099 1.333,1.20102 0.429001,0.33999 0.843002,0.61999 1.247002,0.84997 L 315.82999,461.724 c 0.617,0.34601 1.22302,0.82001 1.79101,1.38101 0.56699,0.56199 1.09699,1.21 1.56,1.904 0.46301,0.69299 0.85901,1.43399 1.16299,2.17898 0.30301,0.74402 0.513,1.49301 0.60102,2.20502 0.088,0.71201 0.047,1.319 -0.103,1.80798 -0.15002,0.48902 -0.40802,0.85901 -0.754,1.09702 -0.34601,0.238 -0.781,0.34201 -1.28201,0.30099 -0.50101,-0.041 -1.07001,-0.229 -1.68601,-0.57599 L 37.957001,314.53601 c -0.896999,-0.50601 -1.799999,-1.12701 -2.701,-1.845 -0.900002,-0.71902 -1.799,-1.535 -2.688999,-2.43201 -0.889002,-0.897 -1.769001,-1.875 -2.633001,-2.91799 -0.863001,-1.042 -1.709999,-2.14902 -2.533001,-3.305 -0.830999,-1.16101 -1.644999,-2.375 -2.442999,-3.63702 -0.798,-1.26199 -1.580999,-2.57199 -2.348,-3.927 -0.768002,-1.35398 -1.52,-2.75299 -2.257,-4.19098 C 19.616,290.84201 18.893,289.362 18.185,287.84699 c -1.412001,-3.03098 -2.77,-6.215 -4.058,-9.517 -1.289,-3.306 -2.509,-6.72998 -3.645,-10.24198 C 9.345,264.57199 8.293,260.969 7.339,257.31201 6.384,253.64902 5.527,249.92999 4.786,246.19202 4.232001,243.385 3.763,240.665 3.376,238.04 2.989,235.411 2.685,232.877 2.462,230.45101 2.239,228.021 2.098,225.698 2.036,223.493 c -0.062,-2.20799 -0.043,-4.29898 0.054,-6.259 0.103,-1.959 0.28,-3.794 0.538,-5.48798 0.258,-1.69601 0.597,-3.25102 1.021,-4.64801 0.425,-1.399 0.935,-2.63901 1.537,-3.70401 0.603,-1.06599 1.297,-1.957 2.088,-2.655 0.523,-0.46298 1.098,-0.83299 1.724,-1.09999 0.625999,-0.26701 1.302999,-0.42801 2.028,-0.47401 0.726,-0.045 1.499,0.026 2.318,0.227 0.819,0.20302 1.684,0.53301 2.593,1.005 z"
         id="path33"
         inkscape:connector-curvature="0"
         style="fill:#550000;stroke:#2b0000;stroke-width:2.41999992"
         sodipodi:nodetypes="ccccccccccccccccscccccccccscccccccccccccccccccccccsccccccccccccccccccc" />
    </g>
    <path
       d="m 684.05102,116.132 c -0.24804,-0.699 -0.60003,-1.377 -1.02801,-1.996 -0.42999,-0.619 -0.93701,-1.179 -1.495,-1.644 -0.55804,-0.465 -1.17004,-0.834 -1.80804,-1.071 L 387.699,2.736 c -0.76599,-0.285 -1.51199,-0.483 -2.23501,-0.602 -0.724,-0.118 -1.42499,-0.157 -2.10199,-0.122 -0.677,0.035 -1.32901,0.144 -1.95499,0.319 -0.625,0.175 -1.225,0.417 -1.79501,0.72 C 255.918,68.655998 132.22501,134.257 8.53101,199.86301 c 0.487999,-0.25901 1.011,-0.45101 1.565,-0.57001 0.554,-0.119 1.142,-0.163 1.761,-0.12698 0.619,0.035 1.27,0.151 1.95,0.35398 0.681001,0.20301 1.391001,0.49401 2.13,0.877 l 215.6364,112.03113 70.1256,36.43286 c 0.63198,0.32901 1.25399,0.79501 1.837,1.357 0.58298,0.56201 1.12699,1.221 1.604,1.93301 0.47699,0.71201 0.88599,1.47699 1.19898,2.254 0.31302,0.776 0.53101,1.56299 0.625,2.319 0.05,0.405 0.062,0.78 0.04,1.12299 -0.023,0.34301 -0.08,0.65301 -0.16901,0.93002 -0.089,0.27698 -0.20898,0.518 -0.358,0.72299 -0.14798,0.20401 -0.32599,0.371 -0.52798,0.49899 C 431.642,280.491 557.32398,200.993 683.01801,121.48501 c 0.229,-0.14501 0.43701,-0.325 0.61798,-0.53601 0.18103,-0.21099 0.336,-0.45499 0.461,-0.72799 0.125,-0.27301 0.221,-0.574 0.28204,-0.902 0.062,-0.32801 0.0909,-0.682 0.082,-1.06 -0.016,-0.706 -0.16199,-1.427 -0.40997,-2.127 l 0,-10e-6 z"
       id="path29"
       inkscape:connector-curvature="0"
       style="fill:#ff0000;stroke:#2b0000;stroke-width:2"
       sodipodi:nodetypes="ccccccscccsccccccccccscccccccccc" />
  </g>
</svg>
